<?xml version="1.0" standalone="no"?>
<!DOCTYPE svg PUBLIC "-//W3C//DTD SVG 1.1//EN" "http://www.w3.org/Graphics/SVG/1.1/DTD/svg11.dtd">
<svg xmlns="http://www.w3.org/2000/svg">
<metadata>Generated by Fontastic.me</metadata>
<defs>
<font id="untitled-font-1" horiz-adv-x="512">
<font-face font-family="untitled-font-1" units-per-em="512" ascent="480" descent="-32"/>
<missing-glyph horiz-adv-x="512" />

<glyph unicode="&#97;" d="M183 110c0 10-4 18-11 25c-7 8-16 11-26 11c-10 0-18-3-25-11c-8-7-11-15-11-25c0-10 3-19 11-26c7-7 15-11 25-11c10 0 19 4 26 11c7 7 11 16 11 26z m-110 146l110 0l0 73l-45 0c-3 0-5-1-7-2l-55-56c-2-2-3-4-3-6z m366-146c0 10-4 18-11 25c-7 8-16 11-26 11c-10 0-18-3-25-11c-8-7-11-15-11-25c0-10 3-19 11-26c7-7 15-11 25-11c10 0 19 4 26 11c7 7 11 16 11 26z m73 311l0-293c0-3 0-5-1-8c-1-2-2-4-4-5c-2-1-3-2-5-3c-1-1-3-2-6-2c-4 0-6 0-7 0c-1-1-3-1-7 0c-4 0-6 0-7 0c0-20-7-38-21-52c-14-14-32-21-52-21c-20 0-37 7-51 21c-15 14-22 32-22 52l-110 0c0-20-7-38-21-52c-14-14-32-21-52-21c-20 0-37 7-51 21c-15 14-22 32-22 52l-18 0c-1 0-3 0-7 0c-3-1-6-1-7 0c-1 0-3 0-6 0c-3 0-6 1-7 2c-1 1-3 2-5 3c-2 1-3 3-4 5c0 3-1 5-1 8c0 5 2 9 6 13c3 3 8 5 13 5l0 92c0 1 0 5-1 10c0 5 0 8 0 11c1 2 1 5 1 9c1 5 1 8 2 11c1 3 2 5 4 9c2 3 4 6 6 8l57 57c4 3 8 7 14 9c6 2 12 4 17 4l46 0l0 55c0 5 2 9 5 12c4 4 8 6 13 6l293 0c5 0 9-2 13-6c3-3 5-7 5-12z"/>
<glyph unicode="&#98;" d="M485 459c0-7-4-14-12-22l-180-181l0-219l91 0c5 0 9-2 13-6c3-3 5-8 5-13c0-5-2-9-5-13c-4-3-8-5-13-5l-256 0c-5 0-9 2-13 5c-3 4-5 8-5 13c0 5 2 10 5 13c4 4 8 6 13 6l91 0l0 219l-180 181c-8 8-12 15-12 22c0 4 1 8 5 10c3 3 7 5 11 5c3 1 7 1 12 1l402 0c5 0 9 0 12-1c4 0 8-2 11-5c4-2 5-6 5-10z"/>
<glyph unicode="&#99;" d="M347 274c0 36-12 66-37 91c-25 25-55 37-91 37c-35 0-65-12-90-37c-25-25-38-55-38-91c0-35 13-65 38-90c25-25 55-38 90-38c36 0 66 13 91 38c25 25 37 55 37 90z m147-237c0-10-4-19-11-26c-7-7-16-11-26-11c-10 0-19 4-26 11l-98 98c-34-24-72-36-114-36c-27 0-53 5-78 16c-25 11-46 25-64 43c-18 18-32 39-43 64c-10 25-16 51-16 78c0 28 6 54 16 78c11 25 25 47 43 65c18 18 39 32 64 43c25 10 51 15 78 15c28 0 54-5 79-15c24-11 46-25 64-43c18-18 32-40 43-65c10-24 16-50 16-78c0-42-12-80-36-114l98-98c7-7 11-15 11-25z"/>
<glyph unicode="&#100;" d="M475 82l0 220c-6-7-12-13-19-19c-51-39-92-72-122-97c-10-8-18-14-24-19c-6-4-14-9-24-14c-11-4-21-7-30-7l0 0c-9 0-19 3-30 7c-10 5-18 10-24 14c-6 5-14 11-24 19c-30 25-71 58-122 97c-7 6-13 12-19 19l0-220c0-2 0-4 2-6c2-2 4-3 7-3l420 0c3 0 5 1 7 3c2 2 2 4 2 6z m0 301l0 7c0 0 0 1 0 3c0 3 0 4-1 4c0 0-1 1-1 2c-1 2-2 3-3 3c-1-1-2-1-4 0l-420 0c-3 0-5-1-7-2c-2-2-2-4-2-7c0-32 14-59 42-81c36-29 75-59 114-91c1-1 5-3 10-8c6-5 10-8 13-11c4-2 8-5 13-9c5-3 10-6 14-8c5-1 9-2 13-2l0 0c4 0 8 1 13 2c4 2 9 5 14 8c5 4 9 7 13 9c3 3 7 6 13 11c5 5 9 7 10 8c39 32 78 62 114 91c11 8 20 19 29 33c9 14 13 26 13 38z m37 10l0-311c0-12-4-23-13-32c-9-9-20-13-33-13l-420 0c-13 0-24 4-33 13c-9 9-13 20-13 32l0 311c0 13 4 23 13 32c9 9 20 14 33 14l420 0c13 0 24-5 33-14c9-9 13-19 13-32z"/>
<glyph unicode="&#101;" d="M256 37c-5 0-9 1-13 5l-178 172c-2 1-4 4-8 7c-3 4-8 10-16 19c-7 9-13 18-19 28c-6 9-11 21-15 34c-5 14-7 27-7 40c0 42 12 74 36 98c24 24 58 35 101 35c11 0 23-2 36-6c12-4 23-9 34-16c11-7 20-14 27-20c8-6 15-12 22-19c7 7 14 13 22 19c7 6 16 13 27 20c11 7 22 12 34 16c13 4 25 6 36 6c43 0 77-11 101-35c24-24 36-56 36-98c0-42-22-85-65-129l-178-171c-4-4-8-5-13-5z"/>
<glyph unicode="&#102;" d="M494 327c0-4-3-9-8-14l-103-101l24-143c0-1 0-3 0-5c0-4-1-8-3-10c-2-3-4-5-8-5c-4 0-8 2-12 4l-128 67l-128-67c-4-2-8-4-12-4c-4 0-7 2-9 5c-2 2-3 6-3 10c0 1 0 3 1 5l24 143l-104 101c-4 6-7 10-7 14c0 7 6 12 16 13l144 21l64 130c4 8 8 12 14 12c6 0 10-4 14-12l64-130l144-21c10-1 16-6 16-13z"/>
<glyph unicode="&#103;" d="M343 225l88 85l-121 18l-54 109l-54-109l-121-18l88-85l-21-120l108 57l108-57z m151 102c0-4-3-9-8-14l-103-101l24-143c0-1 0-3 0-5c0-10-3-15-11-15c-4 0-8 2-12 4l-128 67l-128-67c-4-2-8-4-12-4c-4 0-7 2-9 5c-2 2-3 6-3 10c0 1 0 3 1 5l24 143l-104 101c-4 6-7 10-7 14c0 7 6 12 16 13l144 21l64 130c4 8 8 12 14 12c6 0 10-4 14-12l64-130l144-21c10-1 16-6 16-13z"/>
<glyph unicode="&#104;" d="M457 111c0-23-7-41-21-55c-14-13-32-19-55-19l-250 0c-23 0-41 6-55 19c-14 14-21 32-21 55c0 10 0 20 1 29c1 10 2 20 4 31c2 11 4 22 7 31c3 10 8 19 13 28c5 9 11 17 17 23c7 7 15 12 25 16c9 3 20 5 32 5c1 0 5-2 12-6c6-4 13-9 21-14c8-5 18-9 31-13c13-4 25-6 38-6c13 0 25 2 38 6c13 4 23 8 31 13c8 5 15 10 21 14c7 4 11 6 12 6c12 0 23-2 32-5c10-4 18-9 25-16c6-6 12-14 17-23c5-9 10-18 13-28c3-9 5-20 7-31c2-11 3-21 4-31c1-9 1-19 1-29z m-91 255c0-31-11-56-32-78c-22-21-48-32-78-32c-30 0-56 11-78 32c-21 22-32 47-32 78c0 30 11 56 32 77c22 22 48 32 78 32c30 0 56-10 78-32c21-21 32-47 32-77z"/>
<glyph unicode="&#105;" d="M102 68l0 34c0 5-1 9-5 12c-3 4-7 5-12 5l-34 0c-4 0-8-1-12-5c-3-3-5-7-5-12l0-34c0-4 2-8 5-12c4-3 8-5 12-5l34 0c5 0 9 2 12 5c4 4 5 8 5 12z m0 103l0 34c0 4-1 8-5 12c-3 3-7 5-12 5l-34 0c-4 0-8-2-12-5c-3-4-5-8-5-12l0-34c0-5 2-9 5-12c4-4 8-5 12-5l34 0c5 0 9 1 12 5c4 3 5 7 5 12z m0 102l0 34c0 5-1 9-5 12c-3 4-7 5-12 5l-34 0c-4 0-8-1-12-5c-3-3-5-7-5-12l0-34c0-5 2-9 5-12c4-3 8-5 12-5l34 0c5 0 9 2 12 5c4 3 5 7 5 12z m273-205l0 137c0 4-1 8-5 12c-3 3-7 5-12 5l-204 0c-5 0-9-2-12-5c-4-4-5-8-5-12l0-137c0-4 1-8 5-12c3-3 7-5 12-5l204 0c5 0 9 2 12 5c4 4 5 8 5 12z m-273 307l0 35c0 4-1 8-5 12c-3 3-7 5-12 5l-34 0c-4 0-8-2-12-5c-3-4-5-8-5-12l0-35c0-4 2-8 5-12c4-3 8-5 12-5l34 0c5 0 9 2 12 5c4 4 5 8 5 12z m376-307l0 34c0 5-2 9-5 12c-4 4-8 5-12 5l-34 0c-5 0-9-1-12-5c-4-3-5-7-5-12l0-34c0-4 1-8 5-12c3-3 7-5 12-5l34 0c4 0 8 2 12 5c3 4 5 8 5 12z m-103 205l0 137c0 4-1 8-5 12c-3 3-7 5-12 5l-204 0c-5 0-9-2-12-5c-4-4-5-8-5-12l0-137c0-5 1-9 5-12c3-3 7-5 12-5l204 0c5 0 9 2 12 5c4 3 5 7 5 12z m103-102l0 34c0 4-2 8-5 12c-4 3-8 5-12 5l-34 0c-5 0-9-2-12-5c-4-4-5-8-5-12l0-34c0-5 1-9 5-12c3-4 7-5 12-5l34 0c4 0 8 1 12 5c3 3 5 7 5 12z m0 102l0 34c0 5-2 9-5 12c-4 4-8 5-12 5l-34 0c-5 0-9-1-12-5c-4-3-5-7-5-12l0-34c0-5 1-9 5-12c3-3 7-5 12-5l34 0c4 0 8 2 12 5c3 3 5 7 5 12z m0 102l0 35c0 4-2 8-5 12c-4 3-8 5-12 5l-34 0c-5 0-9-2-12-5c-4-4-5-8-5-12l0-35c0-4 1-8 5-12c3-3 7-5 12-5l34 0c4 0 8 2 12 5c3 4 5 8 5 12z m34 43l0-358c0-12-4-22-13-30c-8-9-18-13-30-13l-426 0c-12 0-22 4-30 13c-9 8-13 18-13 30l0 358c0 12 4 22 13 30c8 9 18 13 30 13l426 0c12 0 22-4 30-13c9-8 13-18 13-30z"/>
<glyph unicode="&#106;" d="M238 219l0-109c0-10-4-19-11-26c-7-7-16-11-26-11l-146 0c-10 0-19 4-26 11c-7 7-11 16-11 26l0 109c0 10 4 19 11 26c7 7 16 11 26 11l146 0c10 0 19-4 26-11c7-7 11-16 11-26z m0 220l0-110c0-10-4-18-11-26c-7-7-16-10-26-10l-146 0c-10 0-19 3-26 10c-7 8-11 16-11 26l0 110c0 10 4 18 11 26c7 7 16 10 26 10l146 0c10 0 19-3 26-10c7-8 11-16 11-26z m256-220l0-109c0-10-4-19-11-26c-7-7-16-11-26-11l-146 0c-10 0-19 4-26 11c-7 7-11 16-11 26l0 109c0 10 4 19 11 26c7 7 16 11 26 11l146 0c10 0 19-4 26-11c7-7 11-16 11-26z m0 220l0-110c0-10-4-18-11-26c-7-7-16-10-26-10l-146 0c-10 0-19 3-26 10c-7 8-11 16-11 26l0 110c0 10 4 18 11 26c7 7 16 10 26 10l146 0c10 0 19-3 26-10c7-8 11-16 11-26z"/>
<glyph unicode="&#107;" d="M146 155l0-54c0-8-2-15-8-20c-5-5-12-8-19-8l-92 0c-7 0-14 3-19 8c-5 5-8 12-8 20l0 54c0 8 3 15 8 20c5 5 12 8 19 8l92 0c7 0 14-3 19-8c6-5 8-12 8-20z m0 147l0-55c0-8-2-14-8-20c-5-5-12-8-19-8l-92 0c-7 0-14 3-19 8c-5 6-8 12-8 20l0 55c0 7 3 14 8 19c5 5 12 8 19 8l92 0c7 0 14-3 19-8c6-5 8-12 8-19z m183-147l0-54c0-8-3-15-8-20c-5-5-12-8-19-8l-92 0c-7 0-14 3-19 8c-5 5-8 12-8 20l0 54c0 8 3 15 8 20c5 5 12 8 19 8l92 0c7 0 14-3 19-8c5-5 8-12 8-20z m-183 293l0-55c0-7-2-14-8-19c-5-6-12-8-19-8l-92 0c-7 0-14 2-19 8c-5 5-8 12-8 19l0 55c0 8 3 14 8 19c5 6 12 8 19 8l92 0c7 0 14-2 19-8c6-5 8-11 8-19z m183-146l0-55c0-8-3-14-8-20c-5-5-12-8-19-8l-92 0c-7 0-14 3-19 8c-5 6-8 12-8 20l0 55c0 7 3 14 8 19c5 5 12 8 19 8l92 0c7 0 14-3 19-8c5-5 8-12 8-19z m183-147l0-54c0-8-3-15-8-20c-5-5-12-8-19-8l-92 0c-7 0-14 3-19 8c-6 5-8 12-8 20l0 54c0 8 2 15 8 20c5 5 12 8 19 8l92 0c7 0 14-3 19-8c5-5 8-12 8-20z m-183 293l0-55c0-7-3-14-8-19c-5-6-12-8-19-8l-92 0c-7 0-14 2-19 8c-5 5-8 12-8 19l0 55c0 8 3 14 8 19c5 6 12 8 19 8l92 0c7 0 14-2 19-8c5-5 8-11 8-19z m183-146l0-55c0-8-3-14-8-20c-5-5-12-8-19-8l-92 0c-7 0-14 3-19 8c-6 6-8 12-8 20l0 55c0 7 2 14 8 19c5 5 12 8 19 8l92 0c7 0 14-3 19-8c5-5 8-12 8-19z m0 146l0-55c0-7-3-14-8-19c-5-6-12-8-19-8l-92 0c-7 0-14 2-19 8c-6 5-8 12-8 19l0 55c0 8 2 14 8 19c5 6 12 8 19 8l92 0c7 0 14-2 19-8c5-5 8-11 8-19z"/>
<glyph unicode="&#108;" d="M146 155l0-54c0-8-2-15-8-20c-5-5-12-8-19-8l-92 0c-7 0-14 3-19 8c-5 5-8 12-8 20l0 54c0 8 3 15 8 20c5 5 12 8 19 8l92 0c7 0 14-3 19-8c6-5 8-12 8-20z m0 147l0-55c0-8-2-14-8-20c-5-5-12-8-19-8l-92 0c-7 0-14 3-19 8c-5 6-8 12-8 20l0 55c0 7 3 14 8 19c5 5 12 8 19 8l92 0c7 0 14-3 19-8c6-5 8-12 8-19z m366-147l0-54c0-8-3-15-8-20c-5-5-12-8-19-8l-275 0c-7 0-14 3-19 8c-5 5-8 12-8 20l0 54c0 8 3 15 8 20c5 5 12 8 19 8l275 0c7 0 14-3 19-8c5-5 8-12 8-20z m-366 293l0-55c0-7-2-14-8-19c-5-6-12-8-19-8l-92 0c-7 0-14 2-19 8c-5 5-8 12-8 19l0 55c0 8 3 14 8 19c5 6 12 8 19 8l92 0c7 0 14-2 19-8c6-5 8-11 8-19z m366-146l0-55c0-8-3-14-8-20c-5-5-12-8-19-8l-275 0c-7 0-14 3-19 8c-5 6-8 12-8 20l0 55c0 7 3 14 8 19c5 5 12 8 19 8l275 0c7 0 14-3 19-8c5-5 8-12 8-19z m0 146l0-55c0-7-3-14-8-19c-5-6-12-8-19-8l-275 0c-7 0-14 2-19 8c-5 5-8 12-8 19l0 55c0 8 3 14 8 19c5 6 12 8 19 8l275 0c7 0 14-2 19-8c5-5 8-11 8-19z"/>
<glyph unicode="&#109;" d="M477 350c0-7-2-14-8-19l-206-207l-39-39c-6-5-12-8-20-8c-7 0-14 3-19 8l-142 142c-6 6-8 12-8 20c0 7 2 14 8 19l38 39c6 5 12 8 20 8c7 0 14-3 19-8l84-84l188 188c5 5 12 8 19 8c8 0 14-3 20-8l38-39c6-6 8-12 8-20z"/>
<glyph unicode="&#110;" d="M426 134c0-7-3-14-8-19l-39-39c-5-5-12-8-20-8c-7 0-14 3-19 8l-84 84l-84-84c-5-5-12-8-19-8c-8 0-15 3-20 8l-39 39c-5 5-8 12-8 19c0 8 3 14 8 20l84 84l-84 84c-5 5-8 12-8 19c0 8 3 14 8 20l39 38c5 6 12 8 20 8c7 0 14-2 19-8l84-84l84 84c5 6 12 8 19 8c8 0 15-2 20-8l39-38c5-6 8-12 8-20c0-7-3-14-8-19l-84-84l84-84c5-6 8-12 8-20z"/>
<glyph unicode="&#111;" d="M311 283l0-18c0-2-1-4-3-6c-2-2-4-3-6-3l-64 0l0-64c0-2-1-5-3-6c-2-2-4-3-6-3l-19 0c-2 0-4 1-6 3c-2 1-3 4-3 6l0 64l-64 0c-2 0-4 1-6 3c-2 2-3 4-3 6l0 18c0 3 1 5 3 7c2 2 4 3 6 3l64 0l0 64c0 2 1 4 3 6c2 2 4 3 6 3l19 0c2 0 4-1 6-3c2-2 3-4 3-6l0-64l64 0c2 0 4-1 6-3c2-2 3-4 3-7z m36-9c0 36-12 66-37 91c-25 25-55 37-91 37c-35 0-65-12-90-37c-25-25-38-55-38-91c0-35 13-65 38-90c25-25 55-38 90-38c36 0 66 13 91 38c25 25 37 55 37 90z m147-237c0-11-4-19-11-26c-7-7-16-11-26-11c-10 0-19 4-26 11l-98 98c-34-24-72-36-114-36c-27 0-53 5-78 16c-25 11-46 25-64 43c-18 18-32 39-43 64c-10 25-16 51-16 78c0 28 6 54 16 78c11 25 25 47 43 65c18 18 39 32 64 43c25 10 51 15 78 15c28 0 54-5 79-15c24-11 46-25 64-43c18-18 32-40 43-65c10-24 16-50 16-78c0-42-12-80-36-114l98-98c7-7 11-15 11-25z"/>
<glyph unicode="&#112;" d="M311 283l0-18c0-2-1-4-3-6c-2-2-4-3-6-3l-165 0c-2 0-4 1-6 3c-2 2-3 4-3 6l0 18c0 3 1 5 3 7c2 2 4 3 6 3l165 0c2 0 4-1 6-3c2-2 3-4 3-7z m36-9c0 36-12 66-37 91c-25 25-55 37-91 37c-35 0-65-12-90-37c-25-25-38-55-38-91c0-35 13-65 38-90c25-25 55-38 90-38c36 0 66 13 91 38c25 25 37 55 37 90z m147-237c0-11-4-19-11-26c-7-7-16-11-26-11c-10 0-19 4-26 11l-98 98c-34-24-72-36-114-36c-27 0-53 5-78 16c-25 11-46 25-64 43c-18 18-32 39-43 64c-10 25-16 51-16 78c0 28 6 54 16 78c11 25 25 47 43 65c18 18 39 32 64 43c25 10 51 15 78 15c28 0 54-5 79-15c24-11 46-25 64-43c18-18 32-40 43-65c10-24 16-50 16-78c0-42-12-80-36-114l98-98c7-7 11-15 11-25z"/>
<glyph unicode="&#113;" d="M475 256c0-30-5-58-17-85c-12-27-27-51-47-70c-19-20-43-35-70-47c-27-12-55-17-85-17c-30 0-58 5-85 17c-27 12-51 27-70 47c-20 19-35 43-47 70c-12 27-17 55-17 85c0 35 7 67 23 98c15 31 36 56 64 77c8 6 18 9 28 7c10-1 18-6 23-14c7-8 9-17 7-27c-1-10-6-18-14-24c-18-14-33-31-43-52c-10-20-15-42-15-65c0-20 4-39 11-57c8-18 18-33 32-46c13-14 28-24 46-32c18-7 37-11 57-11c20 0 39 4 57 11c18 8 33 18 46 32c14 13 24 28 32 46c7 18 11 37 11 57c0 23-5 45-15 65c-10 21-25 38-43 52c-8 6-13 14-14 24c-2 10 0 19 7 27c5 8 13 13 24 14c10 2 19-1 27-7c28-21 49-46 64-77c16-31 23-63 23-98z m-182 219l0-182c0-10-4-19-11-26c-8-7-16-11-26-11c-10 0-18 4-26 11c-7 7-11 16-11 26l0 182c0 10 4 19 11 26c8 7 16 11 26 11c10 0 18-4 26-11c7-7 11-16 11-26z"/>
<glyph unicode="&#114;" d="M73 101l0-55c0-3-1-5-2-7c-2-2-4-2-7-2l-55 0c-3 0-5 0-6 2c-2 2-3 4-3 7l0 55c0 2 1 4 3 6c1 2 3 3 6 3l55 0c3 0 5-1 7-3c1-2 2-4 2-6z m110 36l0-91c0-3-1-5-3-7c-1-2-4-2-6-2l-55 0c-3 0-5 0-7 2c-1 2-2 4-2 7l0 91c0 3 1 5 2 7c2 1 4 2 7 2l55 0c2 0 5-1 6-2c2-2 3-4 3-7z m110 73l0-164c0-3-1-5-3-7c-2-2-4-2-7-2l-54 0c-3 0-5 0-7 2c-2 2-3 4-3 7l0 164c0 3 1 5 3 7c2 2 4 2 7 2l54 0c3 0 5 0 7-2c2-2 3-4 3-7z m109 110l0-274c0-3-1-5-2-7c-2-2-4-2-7-2l-55 0c-2 0-5 0-6 2c-2 2-3 4-3 7l0 274c0 3 1 5 3 7c1 1 4 2 6 2l55 0c3 0 5-1 7-2c1-2 2-4 2-7z m110 146l0-420c0-3-1-5-3-7c-1-2-3-2-6-2l-55 0c-3 0-5 0-7 2c-1 2-2 4-2 7l0 420c0 3 1 5 2 7c2 2 4 2 7 2l55 0c3 0 5 0 6-2c2-2 3-4 3-7z"/>
<glyph unicode="&#115;" d="M329 256c0 20-7 37-21 52c-15 14-32 21-52 21c-20 0-37-7-52-21c-14-15-21-32-21-52c0-20 7-37 21-52c15-14 32-21 52-21c20 0 37 7 52 21c14 15 21 32 21 52z m146 31l0-63c0-3 0-5-2-7c-1-2-3-3-6-4l-52-8c-4-10-8-19-12-26c7-9 17-22 31-39c2-2 3-5 3-7c0-3-1-5-3-7c-5-7-14-17-28-31c-14-13-23-20-27-20c-2 0-5 1-7 3l-40 31c-8-5-17-8-26-11c-3-26-6-44-8-53c-1-6-5-8-10-8l-64 0c-2 0-5 0-7 2c-2 2-3 4-3 6l-8 53c-9 3-18 6-26 10l-40-30c-2-2-4-3-7-3c-3 0-5 1-7 3c-24 22-40 38-47 48c-2 2-2 4-2 7c0 2 0 4 2 6c3 4 8 11 14 19c7 9 12 16 16 21c-5 9-9 19-12 28l-52 8c-3 0-5 1-6 3c-2 2-2 4-2 7l0 63c0 3 0 5 2 7c1 2 3 3 5 4l53 8c3 8 7 17 12 26c-8 11-18 24-31 39c-2 3-3 5-3 7c0 2 1 4 3 7c5 7 14 17 28 30c14 14 23 21 27 21c2 0 5-1 7-3l40-31c8 5 17 8 26 11c3 26 6 44 8 53c1 6 5 8 10 8l64 0c2 0 5 0 7-2c2-2 3-4 3-6l8-53c9-3 18-6 26-10l40 30c2 2 4 3 7 3c3 0 5-1 7-3c25-23 41-39 47-49c2-1 2-3 2-6c0-2 0-4-2-6c-3-4-8-11-14-19c-7-9-12-16-16-21c5-9 9-18 12-28l52-8c3 0 5-1 6-3c2-2 2-4 2-7z"/>
<glyph unicode="&#116;" d="M201 302l0-165c0-3-1-5-2-6c-2-2-4-3-7-3l-18 0c-3 0-5 1-7 3c-2 1-2 3-2 6l0 165c0 2 0 5 2 6c2 2 4 3 7 3l18 0c3 0 5-1 7-3c1-1 2-4 2-6z m73 0l0-165c0-3-1-5-2-6c-2-2-4-3-7-3l-18 0c-3 0-5 1-7 3c-1 1-2 3-2 6l0 165c0 2 1 5 2 6c2 2 4 3 7 3l18 0c3 0 5-1 7-3c1-1 2-4 2-6z m73 0l0-165c0-3 0-5-2-6c-2-2-4-3-7-3l-18 0c-3 0-5 1-7 3c-1 1-2 3-2 6l0 165c0 2 1 5 2 6c2 2 4 3 7 3l18 0c3 0 5-1 7-3c2-1 2-4 2-6z m37-207l0 271l-256 0l0-271c0-4 1-8 2-12c1-3 3-6 4-7c2-2 3-3 3-3l238 0c0 0 1 1 3 3c1 1 3 4 4 7c1 4 2 8 2 12z m-192 307l128 0l-14 34c-1 1-3 2-5 3l-90 0c-2-1-4-2-5-3z m265-9l0-18c0-3-1-5-2-7c-2-1-4-2-7-2l-27 0l0-271c0-16-5-30-14-41c-9-12-20-17-32-17l-238 0c-12 0-23 5-32 16c-9 11-14 25-14 41l0 272l-27 0c-3 0-5 1-7 2c-1 2-2 4-2 7l0 18c0 3 1 5 2 7c2 1 4 2 7 2l88 0l20 48c3 7 8 13 16 18c7 5 15 7 22 7l92 0c7 0 15-2 22-7c8-5 13-11 16-18l20-48l88 0c3 0 5-1 7-2c1-2 2-4 2-7z"/>
<glyph unicode="&#117;" d="M421 229l0-138c0-5-2-9-6-12c-3-4-8-6-13-6l-109 0l0 110l-74 0l0-110l-109 0c-5 0-10 2-13 6c-4 3-6 7-6 12l0 138c0 0 0 0 1 0c0 1 0 1 0 1l164 136l164-136c0 0 1-1 1-1z m63 19l-17-21c-2-2-4-3-6-3l-1 0c-3 0-5 1-6 2l-198 165l-198-165c-2-2-4-2-7-2c-2 0-4 1-6 3l-17 21c-2 2-2 4-2 7c0 3 1 5 3 6l205 171c6 5 14 8 22 8c8 0 16-3 22-8l69-58l0 56c0 2 1 5 3 6c2 2 4 3 7 3l54 0c3 0 5-1 7-3c2-1 3-4 3-6l0-117l62-52c2-1 3-3 3-6c0-3 0-5-2-7z"/>
<glyph unicode="&#118;" d="M110 73l292 0l0 220l-119 0c-7 0-14 2-19 8c-5 5-8 11-8 19l0 119l-146 0z m183 256l107 0c-2 6-4 10-6 12l-90 89c-2 3-6 5-11 7z m146-9l0-256c0-8-3-14-8-19c-5-6-12-8-20-8l-310 0c-8 0-15 2-20 8c-5 5-8 11-8 19l0 384c0 8 3 14 8 19c5 6 12 8 20 8l182 0c8 0 16-1 26-5c9-4 16-9 21-14l89-89c6-5 10-13 14-22c4-9 6-17 6-25z"/>
<glyph unicode="&#119;" d="M293 357l0-128c0-3-1-5-3-7c-2-2-4-3-7-3l-91 0c-3 0-5 1-7 3c-1 2-2 4-2 7l0 18c0 3 1 5 2 6c2 2 4 3 7 3l64 0l0 101c0 2 1 4 3 6c1 2 3 3 6 3l18 0c3 0 5-1 7-3c2-2 3-4 3-6z m118-101c0 28-7 54-20 78c-14 24-33 43-57 57c-24 13-50 20-78 20c-28 0-54-7-78-20c-24-14-43-33-57-57c-13-24-20-50-20-78c0-28 7-54 20-78c14-24 33-43 57-57c24-13 50-20 78-20c28 0 54 7 78 20c24 14 43 33 57 57c13 24 20 50 20 78z m64 0c0-40-9-77-29-110c-20-34-46-60-80-80c-33-20-70-29-110-29c-40 0-77 9-110 29c-34 20-60 46-80 80c-20 33-29 70-29 110c0 40 9 77 29 110c20 34 46 60 80 80c33 20 70 29 110 29c40 0 77-9 110-29c34-20 60-46 80-80c20-33 29-70 29-110z"/>
<glyph unicode="&#120;" d="M296 229l0 1l-6 86c0 2-1 4-3 6c-2 1-4 2-6 2l-50 0c-2 0-4-1-6-2c-2-2-3-4-3-6l-6-86l0-1c0-2 0-4 2-5c1-1 3-2 5-2l66 0c2 0 4 1 5 2c2 1 2 3 2 5z m203-124c0-13-4-20-13-20l-187 0c2 0 4 1 6 3c1 2 2 4 2 6l-6 68c0 2-1 4-3 6c-1 2-3 3-6 3l-72 0c-3 0-5-1-6-3c-2-2-3-4-3-6l-6-68c0-2 1-4 2-6c2-2 4-3 6-3l-187 0c-9 0-13 7-13 20c0 9 3 20 7 31l111 278c2 4 4 6 7 9c4 2 7 4 11 4l90 0c-2 0-4-1-6-3c-2-2-3-4-3-6l-4-51c0-3 0-5 2-6c2-2 4-3 6-3l44 0c2 0 4 1 6 3c2 1 2 3 2 6l-4 51c0 2-1 4-3 6c-2 2-4 3-6 3l90 0c4 0 7-2 11-4c3-3 5-5 7-9l111-278c4-11 7-22 7-31z"/>
<glyph unicode="&#121;" d="M384 128c0 5-2 9-5 13c-4 3-8 5-13 5c-5 0-10-2-13-5c-4-4-6-8-6-13c0-5 2-9 6-13c3-3 8-5 13-5c5 0 9 2 13 5c3 4 5 8 5 13z m73 0c0 5-2 9-5 13c-4 3-8 5-13 5c-5 0-9-2-13-5c-4-4-5-8-5-13c0-5 1-9 5-13c4-3 8-5 13-5c5 0 9 2 13 5c3 4 5 8 5 13z m37 64l0-91c0-8-3-15-8-20c-6-5-12-8-20-8l-420 0c-8 0-14 3-20 8c-5 5-8 12-8 20l0 91c0 8 3 14 8 19c6 6 12 8 20 8l133 0l38-38c11-11 24-16 39-16c15 0 28 5 39 16l39 38l132 0c8 0 14-2 20-8c5-5 8-11 8-19z m-93 163c3-8 2-15-4-20l-128-128c-4-4-8-6-13-6c-5 0-9 2-13 6l-128 128c-6 5-7 12-4 20c3 7 9 11 17 11l73 0l0 128c0 5 2 9 6 13c3 3 7 5 12 5l74 0c5 0 9-2 12-5c4-4 6-8 6-13l0-128l73 0c8 0 14-4 17-11z"/>
<glyph unicode="&#122;" d="M357 247c0-2-1-5-3-7l-91-91c-3-2-5-3-7-3c-2 0-4 1-7 3l-91 91c-3 3-4 7-2 10c2 4 4 6 9 6l54 0l0 101c0 2 1 4 3 6c2 2 4 3 7 3l54 0c3 0 5-1 7-3c2-2 3-4 3-6l0-101l54 0c3 0 5-1 7-3c2-1 3-3 3-6z m-101 164c-28 0-54-7-78-20c-24-14-43-33-57-57c-13-24-20-50-20-78c0-28 7-54 20-78c14-24 33-43 57-57c24-13 50-20 78-20c28 0 54 7 78 20c24 14 43 33 57 57c13 24 20 50 20 78c0 28-7 54-20 78c-14 24-33 43-57 57c-24 13-50 20-78 20z m219-155c0-40-9-77-29-110c-20-34-46-60-80-80c-33-20-70-29-110-29c-40 0-77 9-110 29c-34 20-60 46-80 80c-20 33-29 70-29 110c0 40 9 77 29 110c20 34 46 60 80 80c33 20 70 29 110 29c40 0 77-9 110-29c34-20 60-46 80-80c20-33 29-70 29-110z"/>
<glyph unicode="&#65;" d="M356 262c-2-4-4-6-9-6l-54 0l0-101c0-2-1-4-3-6c-2-2-4-3-7-3l-54 0c-3 0-5 1-7 3c-2 2-3 4-3 6l0 101l-54 0c-3 0-5 1-7 3c-2 1-3 3-3 6c0 2 1 5 3 7l91 91c3 2 5 3 7 3c2 0 4-1 7-3l91-91c3-3 4-7 2-10z m-100 149c-28 0-54-7-78-20c-24-14-43-33-57-57c-13-24-20-50-20-78c0-28 7-54 20-78c14-24 33-43 57-57c24-13 50-20 78-20c28 0 54 7 78 20c24 14 43 33 57 57c13 24 20 50 20 78c0 28-7 54-20 78c-14 24-33 43-57 57c-24 13-50 20-78 20z m219-155c0-40-9-77-29-110c-20-34-46-60-80-80c-33-20-70-29-110-29c-40 0-77 9-110 29c-34 20-60 46-80 80c-20 33-29 70-29 110c0 40 9 77 29 110c20 34 46 60 80 80c33 20 70 29 110 29c40 0 77-9 110-29c34-20 60-46 80-80c20-33 29-70 29-110z"/>
<glyph unicode="&#66;" d="M329 238l90 0c0 0 0 1-1 2c0 1 0 2 0 2l-61 142l-202 0l-61-142c0 0 0-1 0-2c-1-1-1-2-1-2l90 0l27-55l92 0z m146-9l0-138c0-5-1-9-5-12c-4-4-8-6-13-6l-402 0c-5 0-9 2-13 6c-4 3-5 7-5 12l0 138c0 12 2 24 7 35l68 158c2 5 5 9 10 12c5 3 10 5 15 5l238 0c5 0 10-2 15-5c5-3 8-7 10-12l68-158c5-11 7-23 7-35z"/>
<glyph unicode="&#67;" d="M375 256c0-7-3-12-9-16l-156-91c-3-2-6-3-9-3c-3 0-6 1-9 3c-6 3-9 9-9 16l0 182c0 7 3 13 9 16c6 4 12 4 18 0l156-91c6-4 9-9 9-16z m36 0c0 28-7 54-20 78c-14 24-33 43-57 57c-24 13-50 20-78 20c-28 0-54-7-78-20c-24-14-43-33-57-57c-13-24-20-50-20-78c0-28 7-54 20-78c14-24 33-43 57-57c24-13 50-20 78-20c28 0 54 7 78 20c24 14 43 33 57 57c13 24 20 50 20 78z m64 0c0-40-9-77-29-110c-20-34-46-60-80-80c-33-20-70-29-110-29c-40 0-77 9-110 29c-34 20-60 46-80 80c-20 33-29 70-29 110c0 40 9 77 29 110c20 34 46 60 80 80c33 20 70 29 110 29c40 0 77-9 110-29c34-20 60-46 80-80c20-33 29-70 29-110z"/>
<glyph unicode="&#68;" d="M475 439l0-128c0-5-1-9-5-13c-4-4-8-5-13-5l-128 0c-8 0-13 3-17 11c-3 7-2 14 4 20l40 39c-28 26-62 39-100 39c-20 0-39-4-57-11c-18-8-33-18-46-32c-14-13-24-28-32-46c-7-18-11-37-11-57c0-20 4-39 11-57c8-18 18-33 32-46c13-14 28-24 46-32c18-7 37-11 57-11c23 0 44 5 64 15c20 9 38 23 51 42c2 1 4 3 7 3c3 0 5-1 7-3l39-39c2-2 3-3 3-6c0-2-1-4-2-6c-21-25-46-45-76-59c-29-14-60-20-93-20c-30 0-58 5-85 17c-27 12-51 27-70 47c-20 19-35 43-47 70c-12 27-17 55-17 85c0 30 5 58 17 85c12 27 27 51 47 70c19 20 43 35 70 47c27 12 55 17 85 17c28 0 55-5 81-15c26-11 50-26 70-45l37 37c6 6 12 7 20 4c8-4 11-9 11-17z"/>
<glyph unicode="&#69;" d="M468 210c0-1 0-1 0-2c-12-51-38-92-77-124c-38-32-84-47-136-47c-28 0-55 5-81 15c-26 11-49 26-69 45l-37-37c-4-3-8-5-13-5c-5 0-9 2-13 5c-4 4-5 8-5 13l0 128c0 5 1 9 5 13c4 4 8 5 13 5l128 0c5 0 9-1 13-5c3-4 5-8 5-13c0-5-2-9-5-13l-39-39c13-12 28-22 46-29c17-7 35-10 53-10c26 0 49 6 71 18c23 13 40 30 54 51c2 4 7 15 15 34c1 4 4 6 8 6l55 0c3 0 5 0 7-2c1-2 2-4 2-7z m7 229l0-128c0-5-1-9-5-13c-4-4-8-5-13-5l-128 0c-5 0-9 1-13 5c-3 4-5 8-5 13c0 5 2 9 5 13l40 39c-28 26-62 39-100 39c-26 0-49-6-71-18c-23-13-40-30-54-51c-2-4-7-15-15-34c-1-4-4-6-8-6l-57 0c-3 0-5 0-7 2c-1 2-2 4-2 7l0 2c12 51 38 92 77 124c39 32 85 47 137 47c28 0 55-5 81-15c26-11 50-26 70-45l37 37c4 3 8 5 13 5c5 0 9-2 13-5c4-4 5-8 5-13z"/>
<glyph unicode="&#70;" d="M110 174l0-19c0-2-1-4-3-6c-2-2-4-3-6-3l-19 0c-2 0-4 1-6 3c-2 2-3 4-3 6l0 19c0 2 1 4 3 6c2 2 4 3 6 3l19 0c2 0 4-1 6-3c2-2 3-4 3-6z m0 73l0-18c0-3-1-5-3-7c-2-2-4-3-6-3l-19 0c-2 0-4 1-6 3c-2 2-3 4-3 7l0 18c0 2 1 4 3 6c2 2 4 3 6 3l19 0c2 0 4-1 6-3c2-2 3-4 3-6z m0 73l0-18c0-3-1-5-3-7c-2-2-4-2-6-2l-19 0c-2 0-4 0-6 2c-2 2-3 4-3 7l0 18c0 2 1 5 3 6c2 2 4 3 6 3l19 0c2 0 4-1 6-3c2-1 3-4 3-6z m329-146l0-19c0-2-1-4-3-6c-2-2-4-3-6-3l-275 0c-2 0-4 1-6 3c-2 2-3 4-3 6l0 19c0 2 1 4 3 6c2 2 4 3 6 3l275 0c2 0 4-1 6-3c2-2 3-4 3-6z m0 73l0-18c0-3-1-5-3-7c-2-2-4-3-6-3l-275 0c-2 0-4 1-6 3c-2 2-3 4-3 7l0 18c0 2 1 4 3 6c2 2 4 3 6 3l275 0c2 0 4-1 6-3c2-2 3-4 3-6z m0 73l0-18c0-3-1-5-3-7c-2-2-4-2-6-2l-275 0c-2 0-4 0-6 2c-2 2-3 4-3 7l0 18c0 2 1 5 3 6c2 2 4 3 6 3l275 0c2 0 4-1 6-3c2-1 3-4 3-6z m36-201l0 238c0 2 0 4-2 6c-2 2-4 3-7 3l-420 0c-3 0-5-1-7-3c-2-2-2-4-2-6l0-238c0-3 0-5 2-7c2-1 4-2 7-2l420 0c3 0 5 1 7 2c2 2 2 4 2 7z m37 311l0-311c0-13-4-23-13-32c-9-9-20-14-33-14l-420 0c-13 0-24 5-33 14c-9 9-13 19-13 32l0 311c0 12 4 23 13 32c9 9 20 13 33 13l420 0c13 0 24-4 33-13c9-9 13-20 13-32z"/>
<glyph unicode="&#71;" d="M183 293l146 0l0 54c0 21-7 38-21 52c-15 14-32 22-52 22c-20 0-37-8-52-22c-14-14-21-31-21-52z m238-28l0-164c0-8-3-15-8-20c-6-5-12-8-20-8l-274 0c-8 0-14 3-20 8c-5 5-8 12-8 20l0 164c0 8 3 14 8 20c6 5 12 8 20 8l9 0l0 54c0 35 13 66 38 91c25 25 55 37 90 37c35 0 65-12 90-37c25-25 38-56 38-91l0-54l9 0c8 0 14-3 20-8c5-6 8-12 8-20z"/>
<glyph unicode="&#72;" d="M91 439c0-14-6-24-18-32l0-361c0-3-1-5-3-7c-1-2-4-2-6-2l-18 0c-3 0-5 0-7 2c-2 2-2 4-2 7l0 361c-13 8-19 18-19 32c0 10 4 19 11 26c7 7 16 10 26 10c10 0 19-3 26-10c7-7 10-16 10-26z m421-18l0-218c0-5-1-9-4-11c-2-3-6-6-11-8c-41-22-76-33-105-33c-12 0-24 2-36 6c-11 4-22 9-31 14c-8 5-19 9-33 13c-13 4-26 7-40 7c-37 0-81-14-133-42c-3-2-6-3-9-3c-5 0-10 2-13 6c-4 3-6 8-6 13l0 212c0 6 3 11 9 15c4 3 12 7 23 13c45 22 85 34 120 34c21 0 40-3 57-8c18-6 39-14 63-26c7-3 15-5 25-5c10 0 21 2 34 6c12 4 22 8 31 13c9 5 17 10 25 14c8 4 13 6 16 6c5 0 9-2 13-6c3-3 5-7 5-12z"/>
<glyph unicode="&#73;" d="M494 259c0-32-6-62-17-90l-6-14l-53-9c-4-16-13-29-26-39c-13-10-28-16-45-16l0-9c0-2 0-5-2-6c-2-2-4-3-7-3l-18 0c-3 0-5 1-7 3c-1 1-2 4-2 6l0 165c0 3 1 5 2 6c2 2 4 3 7 3l18 0c3 0 5-1 7-3c2-1 2-3 2-6l0-9c14 0 26-4 38-10c11-7 20-16 26-28l20 4c5 18 8 36 8 55c0 28-9 55-25 80c-17 25-40 44-68 59c-28 15-58 23-90 23c-32 0-62-8-90-23c-28-15-51-34-68-59c-16-25-25-52-25-80c0-19 3-37 8-55l20-4c6 12 15 21 26 28c12 6 24 10 38 10l0 9c0 3 0 5 2 6c2 2 4 3 7 3l18 0c3 0 5-1 7-3c1-1 2-3 2-6l0-165c0-2-1-5-2-6c-2-2-4-3-7-3l-18 0c-3 0-5 1-7 3c-2 1-2 4-2 6l0 9c-17 0-32 6-45 16c-13 10-22 23-26 39l-53 9l-6 14c-11 28-17 58-17 90c0 29 7 56 19 83c13 27 30 50 52 69c21 20 46 35 76 47c29 12 59 17 91 17c32 0 62-5 91-17c30-12 55-27 76-47c22-19 39-42 52-69c12-27 19-54 19-83z"/>
<glyph unicode="&#74;" d="M366 411l0-310c0-5-2-10-6-13c-3-4-8-6-13-6c-5 0-9 2-12 6l-96 95l-74 0c-5 0-10 2-13 5c-4 4-6 8-6 13l0 110c0 5 2 9 6 13c3 3 8 5 13 5l74 0l96 95c3 4 7 6 12 6c5 0 10-2 13-6c4-3 6-8 6-13z"/>
<glyph unicode="&#75;" d="M311 411l0-310c0-5-2-10-6-13c-3-4-7-6-12-6c-5 0-10 2-13 6l-95 95l-75 0c-5 0-10 2-13 5c-4 4-6 8-6 13l0 110c0 5 2 9 6 13c3 3 8 5 13 5l75 0l95 95c3 4 8 6 13 6c5 0 9-2 12-6c4-3 6-8 6-13z m110-155c0-14-4-28-13-40c-8-13-18-22-32-27c-2-1-4-2-7-2c-5 0-9 2-13 6c-3 3-5 8-5 13c0 4 1 7 3 10c3 3 5 5 9 7c3 2 6 4 9 7c4 2 6 5 9 10c2 4 3 10 3 16c0 6-1 12-3 16c-3 5-5 8-9 10c-3 3-6 5-9 7c-4 2-6 4-9 7c-2 3-3 6-3 10c0 5 2 10 5 13c4 4 8 6 13 6c3 0 5-1 7-2c14-5 24-14 32-26c9-13 13-27 13-41z"/>
<glyph unicode="&#76;" d="M238 411l0-310c0-5-2-10-6-13c-3-4-8-6-13-6c-5 0-9 2-12 6l-96 95l-74 0c-5 0-10 2-13 5c-4 4-6 8-6 13l0 110c0 5 2 9 6 13c3 3 8 5 13 5l74 0l96 95c3 4 7 6 12 6c5 0 10-2 13-6c4-3 6-8 6-13z m109-155c0-14-4-28-12-40c-8-13-19-22-32-27c-2-1-4-2-7-2c-5 0-9 2-13 6c-3 3-5 8-5 13c0 4 1 7 3 10c2 3 5 5 8 7c4 2 7 4 10 7c3 2 6 5 8 10c3 4 4 10 4 16c0 6-1 12-4 16c-2 5-5 8-8 10c-3 3-6 5-10 7c-3 2-6 4-8 7c-2 3-3 6-3 10c0 5 2 10 5 13c4 4 8 6 13 6c3 0 5-1 7-2c13-5 24-14 32-26c8-13 12-27 12-41z m74 0c0-29-9-56-25-81c-16-24-37-42-64-54c-2-1-5-1-7-1c-5 0-10 2-13 5c-4 4-6 8-6 13c0 8 4 13 11 17c11 6 18 10 22 13c14 10 25 23 33 38c8 16 12 32 12 50c0 18-4 34-12 50c-8 15-19 28-33 38c-4 3-11 7-22 13c-7 4-11 9-11 17c0 5 2 9 6 13c3 3 8 5 13 5c2 0 5 0 7-1c27-12 48-30 64-54c16-25 25-52 25-81z m73 0c0-44-12-84-37-121c-24-36-56-63-96-81c-3-1-5-1-8-1c-5 0-9 2-12 5c-4 4-6 8-6 13c0 7 4 13 11 17c2 1 4 2 7 3c3 1 5 2 6 3c9 5 17 10 24 15c23 17 41 39 54 64c14 26 20 54 20 83c0 29-6 57-20 83c-13 25-31 47-54 64c-7 5-15 10-24 15c-1 1-3 2-6 3c-3 1-5 2-7 3c-7 4-11 10-11 17c0 5 2 9 6 13c3 3 7 5 12 5c3 0 5 0 8-1c40-18 72-45 96-81c25-37 37-77 37-121z"/>
<glyph unicode="&#77;" d="M165 183l0-37l-37 0l0 37z m0 219l0-36l-37 0l0 36z m219 0l0-36l-37 0l0 36z m-293-292l110 0l0 109l-110 0z m0 219l110 0l0 110l-110 0z m220 0l110 0l0 110l-110 0z m-73-73l0-183l-183 0l0 183z m146-146l0-37l-37 0l0 37z m73 0l0-37l-36 0l0 37z m0 146l0-110l-110 0l0 37l-36 0l0-110l-37 0l0 183l110 0l0-37l37 0l0 37z m-219 219l0-182l-183 0l0 182z m219 0l0-182l-183 0l0 182z"/>
<glyph unicode="&#78;" d="M18 73l-18 0l0 402l18 0z m18 0l-9 0l0 402l9 0z m27 0l-9 0l0 402l9 0z m45 0l-9 0l0 402l9 0z m45 0l-18 0l0 402l18 0z m36 0l-9 0l0 402l9 0z m18 0l-9 0l0 402l9 0z m18 0l-9 0l0 402l9 0z m44 0l-18 0l0 402l18 0z m45 0l-18 0l0 402l18 0z m36 0l-18 0l0 402l18 0z m36 0l-18 0l0 402l18 0z m27 0l-18 0l0 402l18 0z m54 0l-27 0l0 402l27 0z m18 0l-9 0l0 402l9 0z m27 0l-18 0l0 402l18 0z"/>
<glyph unicode="&#79;" d="M165 384c0 10-4 19-11 26c-7 7-16 11-26 11c-10 0-19-4-26-11c-7-7-11-16-11-26c0-10 4-19 11-26c7-7 16-11 26-11c10 0 19 4 26 11c7 7 11 16 11 26z m304-165c0-10-3-18-10-25l-140-141c-8-7-17-10-26-10c-11 0-19 3-26 10l-204 205c-8 7-14 16-19 29c-5 12-7 23-7 33l0 119c0 10 3 18 10 26c8 7 16 10 26 10l119 0c10 0 21-2 33-7c13-5 22-11 30-19l204-204c7-7 10-16 10-26z"/>
<glyph unicode="&#80;" d="M119 375c0 10-3 18-10 25c-6 6-14 10-24 10c-9 0-17-4-24-10c-6-7-10-15-10-25c0-9 4-17 10-24c7-6 15-10 24-10c10 0 18 4 24 10c7 7 10 15 10 24z m285-153c0-10-3-18-10-24l-131-131c-7-7-15-10-24-10c-9 0-17 3-24 10l-191 191c-6 6-12 15-17 27c-5 11-7 21-7 31l0 111c0 9 3 17 10 24c7 6 15 10 24 10l111 0c9 0 20-3 31-7c12-5 21-11 27-17l191-191c7-7 10-15 10-24z m102 0c0-10-3-18-9-24l-131-131c-7-7-15-10-25-10c-6 0-11 1-15 4c-4 2-9 6-15 12l126 125c6 6 10 14 10 24c0 9-4 17-10 24l-191 191c-7 6-16 12-27 17c-11 4-22 7-31 7l59 0c10 0 20-3 32-7c11-5 20-11 27-17l191-191c6-7 9-15 9-24z"/>
<glyph unicode="&#81;" d="M487 375c7-10 9-23 5-36l-79-259c-3-12-11-23-22-31c-11-8-22-12-35-12l-263 0c-15 0-29 5-43 15c-13 10-23 23-28 37c-5 13-5 25-1 37c0 0 0 3 1 7c1 5 1 8 1 11c0 2 0 4-1 6c0 3-1 5-1 6c1 2 2 4 3 6c1 2 2 4 4 6c2 3 4 5 5 7c5 7 9 16 13 26c4 10 7 19 9 26c0 2 0 5 0 9c-1 4-1 6 0 8c0 2 2 5 4 8c3 3 5 5 5 7c4 6 8 15 12 26c4 11 7 19 7 26c1 1 0 4 0 9c-1 4-1 7 0 8c1 2 3 5 6 8c4 4 6 6 6 7c4 5 8 13 13 24c4 11 7 20 7 28c1 1 0 4 0 7c-1 3-1 6-1 7c0 2 1 4 3 6c1 1 3 4 5 6c2 3 3 5 5 6c1 2 3 5 4 9c2 3 3 7 5 10c1 3 2 6 4 10c2 4 4 7 6 9c2 3 4 5 7 7c3 2 7 3 11 3c3 0 8 0 13-1l0-1c7 2 12 2 14 2l218 0c14 0 25-5 32-16c8-10 10-23 6-37l-79-259c-7-22-13-37-20-43c-7-7-19-10-37-10l-248 0c-5 0-9-2-11-5c-2-3-2-7 0-12c4-13 18-20 41-20l264 0c5 0 10 2 16 5c5 3 8 6 10 11l85 282c2 5 2 10 2 17c7-3 13-7 17-13z m-304 0c-1-3-1-5 0-7c1-1 3-2 6-2l174 0c2 0 4 1 7 2c2 2 4 4 5 7l6 18c0 3 0 5-1 7c-1 1-3 2-6 2l-173 0c-3 0-5-1-8-2c-2-2-4-4-4-7z m-24-73c-1-3-1-5 0-7c2-2 3-2 6-2l174 0c2 0 5 0 7 2c3 2 4 4 5 7l6 18c1 2 0 5-1 6c-1 2-3 3-5 3l-174 0c-3 0-5-1-7-3c-3-1-4-4-5-6z"/>
<glyph unicode="&#82;" d="M406 475c4 0 8 0 12-2c7-3 12-7 15-12c4-5 6-11 6-18l0-368c0-6-2-12-6-18c-3-5-8-9-15-11c-3-2-8-3-12-3c-9 0-17 3-24 10l-126 121l-126-121c-7-7-15-10-24-10c-4 0-8 1-12 3c-7 2-12 6-15 11c-4 6-6 12-6 18l0 368c0 7 2 13 6 18c3 5 8 9 15 12c4 2 8 2 12 2z"/>
<glyph unicode="&#83;" d="M128 73l256 0l0 73l-256 0z m0 183l256 0l0 110l-46 0c-7 0-14 2-19 8c-5 5-8 12-8 19l0 46l-183 0z m329-18c0 5-2 9-5 13c-4 3-8 5-13 5c-5 0-9-2-13-5c-4-4-5-8-5-13c0-5 1-10 5-13c4-4 8-6 13-6c5 0 9 2 13 6c3 3 5 8 5 13z m37 0l0-119c0-3-1-5-3-7c-2-1-4-2-6-2l-64 0l0-46c0-8-3-14-8-19c-6-6-12-8-20-8l-274 0c-8 0-14 2-20 8c-5 5-8 11-8 19l0 46l-64 0c-2 0-4 1-6 2c-2 2-3 4-3 7l0 119c0 15 6 28 16 38c11 11 24 17 39 17l18 0l0 155c0 8 3 14 8 19c6 6 12 8 20 8l192 0c7 0 16-1 25-5c9-4 16-9 22-14l43-43c5-6 10-13 14-22c4-9 6-18 6-25l0-73l18 0c15 0 28-6 39-17c10-10 16-23 16-38z"/>
<glyph unicode="&#84;" d="M256 316c21 0 39-8 54-23c15-15 23-33 23-54c0-21-8-39-23-54c-15-15-33-23-54-23c-21 0-39 8-54 23c-15 15-23 33-23 54c0 21 8 39 23 54c15 15 33 23 54 23z m188 111c19 0 35-7 48-20c13-14 20-30 20-49l0-239c0-18-7-34-20-48c-13-13-29-20-48-20l-376 0c-19 0-35 7-48 20c-13 14-20 30-20 48l0 239c0 19 7 35 20 49c13 13 29 20 48 20l60 0l14 36c3 9 9 16 18 22c9 7 18 10 28 10l136 0c10 0 19-3 28-10c9-6 15-13 18-22l14-36z m-188-308c33 0 61 12 84 36c24 23 35 51 35 84c0 33-11 61-35 84c-23 24-51 35-84 35c-33 0-61-11-84-35c-24-23-35-51-35-84c0-33 11-61 35-84c23-24 51-36 84-36z"/>
<glyph unicode="&#85;" d="M225 352l-48-128c14 0 28-1 44-1c15 0 26 0 34 0c7 0 12 0 15 0l8 0c-6 18-15 41-26 69c-10 25-19 45-27 60z m-201-315l-6 0l1 22c4 1 12 3 23 5c17 3 27 6 31 9c4 3 9 10 14 20l68 176l80 206l36 0l3-6l59-137c19-46 31-74 35-85c8-19 17-41 28-67c5-11 11-26 18-47c5-12 11-27 19-42c4-9 7-15 10-16c4-4 11-6 20-7c9-1 18-4 29-8c1-7 2-13 2-16c0-3 0-5-1-7c-15 0-33 0-54 2c-18 1-36 2-54 2c-15 0-28 0-39 0l-57-4l-17 0c0 8 1 16 1 22l38 8c11 3 17 5 19 7c3 2 4 5 4 7c0 3-1 6-2 10l-13 32l-27 65l-128 1c-6-13-16-39-30-78c-4-13-7-21-7-24c0-6 2-10 5-13c5-4 15-7 30-9c0 0 2 0 4 0c2-1 4-1 8-2c4 0 8-1 12-2c0-5 0-10 0-16c0-3 0-6-1-8c-12 0-45 2-99 6l-14-2c-15-3-31-4-48-4z"/>
<glyph unicode="&#86;" d="M213 77c15-6 28-9 40-9c25 0 46 4 62 12c16 8 28 19 35 32c7 14 11 31 11 52c0 22-4 39-12 51c-11 18-24 30-40 36c-15 7-39 10-71 10c-14 0-23-1-29-3l0-41l0-50l1-77c0-3 1-7 3-13z m-4 214c9-2 19-2 32-2c33 0 58 6 75 18c17 13 25 34 25 64c0 21-8 39-24 54c-16 14-40 21-73 21c-10 0-22-1-37-4c0-8 0-15 1-22c1-23 2-50 1-79l0-28c0-9 0-16 0-22z m-154-254l0 26c9 2 15 3 20 4c15 2 26 5 35 9c3 5 5 10 6 14c2 13 3 31 3 56l-1 142c-1 48-2 87-3 115c0 17-1 27-3 31c0 1-1 2-3 4c-4 2-10 3-20 4c-6 0-16 2-32 4l-2 23l75 2l108 4l13 0c1 0 2 0 4 0c2 0 3 0 4 0c0 0 2 0 6 0c4 0 8 0 12 0l21 0c17 0 35-2 55-8c8-2 17-6 27-11c11-5 21-12 29-21c9-9 15-19 19-30c4-11 6-23 6-35c0-13-3-26-9-37c-7-11-16-21-28-30c-5-3-19-11-42-22c33-7 59-21 76-41c17-20 26-43 26-68c0-14-3-30-8-46c-4-12-11-23-20-33c-13-14-26-24-40-31c-14-7-34-13-58-17c-16-3-35-4-57-3l-56 1c-16 0-45-1-85-3c-7-1-33-2-78-3z"/>
<glyph unicode="&#87;" d="M110 37l5 24c0 1 8 3 22 6c14 4 25 7 33 11c5 7 9 17 11 29l8 40l16 76l4 19c1 8 3 16 4 24c2 8 4 14 5 19c1 5 3 9 4 13c1 4 1 7 2 9c1 2 1 3 1 3l8 45l5 18l6 39l3 14l0 11c-8 4-22 7-42 8c-5 0-9 1-10 1l5 29l91-4c7 0 14 0 20 0c13 0 33 1 62 2c6 1 12 1 19 2c7 0 10 0 10 0c0-3-1-7-1-10c-2-6-3-11-4-15c-11-4-21-7-31-9c-12-3-22-6-29-9c-2-6-5-14-7-25c-2-8-3-16-4-23c-8-38-14-67-19-88l-17-89l-11-45l-12-67l-4-13c0-1 0-4 1-7c12-3 23-5 34-6c7-1 13-2 19-3c-1-6-1-11-2-17c-2-6-3-10-3-12c-3 0-6 0-7 0c-4 0-8 0-12 0c-1 0-4 0-8 0c-3 1-17 3-41 5l-57 1c-7 0-24-1-49-3c-14-2-24-2-28-3z"/>
<glyph unicode="&#88;" d="M23 475l16-8c3-1 23-1 60-1l37 0l5 1l33 0l62 0l83 0l10-1c3 0 5 1 8 2c3 2 5 3 6 5l2 2l12 0c3 0 6 0 8 0l0-30c3 0 3-12 0-37l1-29l-1-16c0-7 0-11-1-15c-7-3-14-5-19-5c-5 8-10 20-16 36c-1 5-3 11-4 18c-1 8-3 14-3 19c-1 5-2 8-2 8c-2 3-5 5-8 6c-1 0-5 0-12 0c-7 0-16 0-29 0c-13 0-24 0-32 0c-7 0-13-1-19-2c-2-18-3-31-3-39l1-43l0-95l1-102l-1-42c0-9 1-17 3-25c10-4 18-8 26-9c0 0 2 0 5-1c3-1 7-2 13-4c5-2 9-3 12-3c6-2 10-4 14-6c1-8 2-13 2-14c0-2-1-5-1-8c-3 0-6 0-10 0c-21 0-39 1-53 2c-14 2-37 3-68 3c-17 0-39-2-67-4c-9-1-16-1-20-1c0 4-1 6-1 7l0 7l0 3c4 6 12 11 23 14c26 7 41 12 45 14c2 4 3 10 4 16c1 37 2 78 1 124l-1 122c0 12 0 23 0 34c0 11 0 21 0 29c0 9 0 15-1 17c0 2-1 3-1 4c-2 1-3 2-4 2c-8 1-22 1-43 1c-8 0-17-1-28-3c-11-3-18-5-21-7c-3-2-5-5-6-10c-2-4-4-12-7-21c-2-10-4-18-7-24c-1-4-3-7-5-9c-3-3-5-4-6-4c-8 5-14 9-16 12l0 110z m475-365c7 0 11-2 12-6c2-3 1-7-3-12l-36-47c-4-5-8-7-14-7c-5 0-10 2-14 7l-36 47c-4 5-5 9-3 12c2 4 6 6 12 6l23 0l0 292l-23 0c-6 0-10 2-12 6c-2 3-1 7 3 12l36 47c4 5 9 7 14 7c6 0 10-2 14-7l36-47c4-5 5-9 3-12c-1-4-5-6-12-6l-23 0l0-292z"/>
<glyph unicode="&#89;" d="M60 475l15-8c4-1 24-1 60-1l38 0l5 1l33 0l127 0l91 0l10-1c3 0 5 1 8 2c3 2 5 3 6 5l2 2l12 0c3 0 5 0 8 0l0-30c2 0 2-12 0-37l0-29l0-16c0-7 0-11-1-15c-7-3-14-5-19-5c-5 8-10 20-16 36c-1 5-3 11-4 18c-2 8-3 14-4 19c0 5-1 8-1 8c-3 3-5 5-8 6c-1 0-7 0-17 0c-10 0-23 0-39 0c-17 0-29 0-37 0c-18 0-30-1-36-2c-2-18-3-31-2-39l0-43l0 15l1-103l-1-42c0-8 1-17 4-24c9-5 17-8 25-9c0 0 2-1 5-2c3-1 7-2 13-3c5-2 9-3 12-4c6-1 10-3 14-5c1-8 2-13 2-14c0-2-1-5-1-8c-3-1-6-1-10-1c-21 0-39 1-53 3c-14 2-37 2-68 2c-16 0-38-1-67-3c-8-1-15-2-20-2c0 4 0 7 0 8l-1 7l0 3c4 6 12 11 23 14c26 7 41 12 45 14c2 4 3 9 4 16c1 26 1 67 1 124l-1 12c0 51 0 77-1 80c0 2-1 3-1 4c-1 1-3 2-4 2c-8 1-22 1-43 1c-9 0-25-1-48-4c-22-2-35-5-38-6c-2-2-4-5-6-10c-2-4-4-12-6-21c-3-10-5-18-7-24c-1-4-3-7-6-9c-2-3-4-4-5-4c-9 5-14 9-16 12l0 110z m407-370c5-3 7-8 7-14c0-5-2-10-7-14l-47-36c-5-3-9-4-12-3c-4 2-6 6-6 12l0 23l-292 0l0-23c0-6-2-10-6-12c-3-1-7 0-12 3l-47 36c-5 4-7 9-7 14c0 6 2 11 7 14l47 36c5 4 9 5 12 4c4-2 6-6 6-12l0-23l292 0l0 23c0 6 2 10 6 12c3 1 7 0 12-4z"/>
<glyph unicode="&#90;" d="M512 128l0-37c0-5-2-9-5-12c-4-4-8-6-13-6l-476 0c-5 0-9 2-13 6c-3 3-5 7-5 12l0 37c0 5 2 9 5 13c4 3 8 5 13 5l476 0c5 0 9-2 13-5c3-4 5-8 5-13z m-110 110l0-37c0-5-2-9-5-13c-4-3-8-5-13-5l-366 0c-5 0-9 2-13 5c-3 4-5 8-5 13l0 37c0 5 2 9 5 13c4 3 8 5 13 5l366 0c5 0 9-2 13-5c3-4 5-8 5-13z m73 109l0-36c0-5-1-9-5-13c-4-4-8-5-13-5l-439 0c-5 0-9 1-13 5c-3 4-5 8-5 13l0 36c0 5 2 10 5 13c4 4 8 6 13 6l439 0c5 0 9-2 13-6c4-3 5-8 5-13z m-109 110l0-36c0-5-2-10-6-13c-3-4-8-6-13-6l-329 0c-5 0-9 2-13 6c-3 3-5 8-5 13l0 36c0 5 2 9 5 13c4 4 8 5 13 5l329 0c5 0 10-1 13-5c4-4 6-8 6-13z"/>
<glyph unicode="&#48;" d="M512 128l0-37c0-5-2-9-5-12c-4-4-8-6-13-6l-476 0c-5 0-9 2-13 6c-3 3-5 7-5 12l0 37c0 5 2 9 5 13c4 3 8 5 13 5l476 0c5 0 9-2 13-5c3-4 5-8 5-13z m-110 110l0-37c0-5-2-9-5-13c-4-3-8-5-13-5l-256 0c-5 0-9 2-13 5c-3 4-5 8-5 13l0 37c0 5 2 9 5 13c4 3 8 5 13 5l256 0c5 0 9-2 13-5c3-4 5-8 5-13z m73 109l0-36c0-5-1-9-5-13c-4-4-8-5-13-5l-402 0c-5 0-9 1-13 5c-4 4-5 8-5 13l0 36c0 5 1 10 5 13c4 4 8 6 13 6l402 0c5 0 9-2 13-6c4-3 5-8 5-13z m-109 110l0-36c0-5-2-10-6-13c-3-4-8-6-13-6l-182 0c-5 0-10 2-13 6c-4 3-6 8-6 13l0 36c0 5 2 9 6 13c3 4 8 5 13 5l182 0c5 0 10-1 13-5c4-4 6-8 6-13z"/>
<glyph unicode="&#49;" d="M512 128l0-37c0-5-2-9-5-12c-4-4-8-6-13-6l-476 0c-5 0-9 2-13 6c-3 3-5 7-5 12l0 37c0 5 2 9 5 13c4 3 8 5 13 5l476 0c5 0 9-2 13-5c3-4 5-8 5-13z m0 110l0-37c0-5-2-9-5-13c-4-3-8-5-13-5l-366 0c-5 0-9 2-13 5c-3 4-5 8-5 13l0 37c0 5 2 9 5 13c4 3 8 5 13 5l366 0c5 0 9-2 13-5c3-4 5-8 5-13z m0 109l0-36c0-5-2-9-5-13c-4-4-8-5-13-5l-439 0c-5 0-9 1-13 5c-4 4-5 8-5 13l0 36c0 5 1 10 5 13c4 4 8 6 13 6l439 0c5 0 9-2 13-6c3-3 5-8 5-13z m0 110l0-36c0-5-2-10-5-13c-4-4-8-6-13-6l-329 0c-5 0-10 2-13 6c-4 3-6 8-6 13l0 36c0 5 2 9 6 13c3 4 8 5 13 5l329 0c5 0 9-1 13-5c3-4 5-8 5-13z"/>
<glyph unicode="&#50;" d="M512 128l0-37c0-5-2-9-5-12c-4-4-8-6-13-6l-476 0c-5 0-9 2-13 6c-3 3-5 7-5 12l0 37c0 5 2 9 5 13c4 3 8 5 13 5l476 0c5 0 9-2 13-5c3-4 5-8 5-13z m0 110l0-37c0-5-2-9-5-13c-4-3-8-5-13-5l-476 0c-5 0-9 2-13 5c-3 4-5 8-5 13l0 37c0 5 2 9 5 13c4 3 8 5 13 5l476 0c5 0 9-2 13-5c3-4 5-8 5-13z m0 109l0-36c0-5-2-9-5-13c-4-4-8-5-13-5l-476 0c-5 0-9 1-13 5c-3 4-5 8-5 13l0 36c0 5 2 10 5 13c4 4 8 6 13 6l476 0c5 0 9-2 13-6c3-3 5-8 5-13z m0 110l0-36c0-5-2-10-5-13c-4-4-8-6-13-6l-476 0c-5 0-9 2-13 6c-3 3-5 8-5 13l0 36c0 5 2 9 5 13c4 4 8 5 13 5l476 0c5 0 9-1 13-5c3-4 5-8 5-13z"/>
<glyph unicode="&#51;" d="M73 137l0-55c0-2-1-4-3-6c-1-2-4-3-6-3l-55 0c-2 0-4 1-6 3c-2 2-3 4-3 6l0 55c0 3 1 5 3 7c2 1 4 2 6 2l55 0c2 0 5-1 6-2c2-2 3-4 3-7z m0 110l0-55c0-2-1-5-3-6c-1-2-4-3-6-3l-55 0c-2 0-4 1-6 3c-2 1-3 4-3 6l0 55c0 2 1 4 3 6c2 2 4 3 6 3l55 0c2 0 5-1 6-3c2-2 3-4 3-6z m0 110l0-55c0-3-1-5-3-7c-1-2-4-2-6-2l-55 0c-2 0-4 0-6 2c-2 2-3 4-3 7l0 55c0 2 1 4 3 6c2 2 4 3 6 3l55 0c2 0 5-1 6-3c2-2 3-4 3-6z m439-220l0-55c0-2-1-4-3-6c-2-2-4-3-6-3l-384 0c-3 0-5 1-7 3c-1 2-2 4-2 6l0 55c0 3 1 5 2 7c2 1 4 2 7 2l384 0c2 0 4-1 6-2c2-2 3-4 3-7z m-439 329l0-55c0-2-1-4-3-6c-1-2-4-3-6-3l-55 0c-2 0-4 1-6 3c-2 2-3 4-3 6l0 55c0 3 1 5 3 7c2 2 4 2 6 2l55 0c2 0 5 0 6-2c2-2 3-4 3-7z m439-219l0-55c0-2-1-5-3-6c-2-2-4-3-6-3l-384 0c-3 0-5 1-7 3c-1 1-2 4-2 6l0 55c0 2 1 4 2 6c2 2 4 3 7 3l384 0c2 0 4-1 6-3c2-2 3-4 3-6z m0 110l0-55c0-3-1-5-3-7c-2-2-4-2-6-2l-384 0c-3 0-5 0-7 2c-1 2-2 4-2 7l0 55c0 2 1 4 2 6c2 2 4 3 7 3l384 0c2 0 4-1 6-3c2-2 3-4 3-6z m0 109l0-55c0-2-1-4-3-6c-2-2-4-3-6-3l-384 0c-3 0-5 1-7 3c-1 2-2 4-2 6l0 55c0 3 1 5 2 7c2 2 4 2 7 2l384 0c2 0 4 0 6-2c2-2 3-4 3-7z"/>
<glyph unicode="&#52;" d="M110 357l0-165c0-2-1-5-3-6c-2-2-4-3-6-3c-3 0-5 1-7 2l-82 83c-2 1-3 4-3 6c0 3 1 5 3 7l82 82c2 2 4 3 7 3c2 0 4-1 6-3c2-2 3-4 3-6z m402-220l0-55c0-2-1-4-3-6c-2-2-4-3-6-3l-494 0c-2 0-4 1-6 3c-2 2-3 4-3 6l0 55c0 3 1 5 3 7c2 1 4 2 6 2l494 0c2 0 4-1 6-2c2-2 3-4 3-7z m0 110l0-55c0-2-1-5-3-6c-2-2-4-3-6-3l-311 0c-2 0-5 1-6 3c-2 1-3 4-3 6l0 55c0 2 1 4 3 6c1 2 4 3 6 3l311 0c2 0 4-1 6-3c2-2 3-4 3-6z m0 110l0-55c0-3-1-5-3-7c-2-2-4-2-6-2l-311 0c-2 0-5 0-6 2c-2 2-3 4-3 7l0 55c0 2 1 4 3 6c1 2 4 3 6 3l311 0c2 0 4-1 6-3c2-2 3-4 3-6z m0 109l0-55c0-2-1-4-3-6c-2-2-4-3-6-3l-494 0c-2 0-4 1-6 3c-2 2-3 4-3 6l0 55c0 3 1 5 3 7c2 2 4 2 6 2l494 0c2 0 4 0 6-2c2-2 3-4 3-7z"/>
<glyph unicode="&#53;" d="M101 274c0-2-1-5-3-6l-82-83c-2-1-4-2-7-2c-2 0-4 1-6 3c-2 1-3 4-3 6l0 165c0 2 1 4 3 6c2 2 4 3 6 3c3 0 5-1 7-3l82-82c2-2 3-4 3-7z m411-137l0-55c0-2-1-4-3-6c-2-2-4-3-6-3l-494 0c-2 0-4 1-6 3c-2 2-3 4-3 6l0 55c0 3 1 5 3 7c2 1 4 2 6 2l494 0c2 0 4-1 6-2c2-2 3-4 3-7z m0 110l0-55c0-2-1-5-3-6c-2-2-4-3-6-3l-311 0c-2 0-5 1-6 3c-2 1-3 4-3 6l0 55c0 2 1 4 3 6c1 2 4 3 6 3l311 0c2 0 4-1 6-3c2-2 3-4 3-6z m0 110l0-55c0-3-1-5-3-7c-2-2-4-2-6-2l-311 0c-2 0-5 0-6 2c-2 2-3 4-3 7l0 55c0 2 1 4 3 6c1 2 4 3 6 3l311 0c2 0 4-1 6-3c2-2 3-4 3-6z m0 109l0-55c0-2-1-4-3-6c-2-2-4-3-6-3l-494 0c-2 0-4 1-6 3c-2 2-3 4-3 6l0 55c0 3 1 5 3 7c2 2 4 2 6 2l494 0c2 0 4 0 6-2c2-2 3-4 3-7z"/>
<glyph unicode="&#54;" d="M512 411l0-310c0-8-4-14-11-17c-3-1-5-2-7-2c-5 0-10 2-13 6l-115 115l0-48c0-22-8-42-24-58c-17-16-36-24-59-24l-201 0c-22 0-42 8-58 24c-16 16-24 36-24 58l0 202c0 22 8 42 24 58c16 16 36 24 58 24l201 0c23 0 42-8 59-24c16-16 24-36 24-58l0-48l115 115c3 4 8 6 13 6c2 0 4-1 7-2c7-3 11-9 11-17z"/>
<glyph unicode="&#55;" d="M171 341c0-14-5-26-15-36c-10-10-22-15-37-15c-14 0-26 5-36 15c-10 10-15 22-15 36c0 15 5 27 15 37c10 10 22 15 36 15c15 0 27-5 37-15c10-10 15-22 15-37z m273-102l0-120l-376 0l0 52l86 85l42-43l137 137z m25 188l-426 0c-3 0-5-1-6-3c-2-2-3-4-3-6l0-324c0-2 1-4 3-6c1-2 3-3 6-3l426 0c3 0 5 1 6 3c2 2 3 4 3 6l0 324c0 2-1 4-3 6c-1 2-3 3-6 3z m43-9l0-324c0-12-4-22-13-30c-8-9-18-13-30-13l-426 0c-12 0-22 4-30 13c-9 8-13 18-13 30l0 324c0 12 4 22 13 30c8 9 18 13 30 13l426 0c12 0 22-4 30-13c9-8 13-18 13-30z"/>
<glyph unicode="&#56;" d="M140 73l26 26l-67 67l-26-26l0-30l37 0l0-37z m150 265c0 4-2 7-7 7c-1 0-3-1-4-2l-155-155c-2-2-2-3-2-5c0-4 2-6 6-6c2 0 4 0 5 2l155 154c1 2 2 3 2 5z m-16 55l119-119l-238-237l-118 0l0 118z m195-27c0-10-3-19-10-26l-48-47l-118 118l47 48c7 7 15 10 26 10c10 0 18-3 26-10l67-67c7-8 10-16 10-26z"/>
<glyph unicode="&#57;" d="M329 329c0 20-7 38-21 52c-15 14-32 21-52 21c-20 0-37-7-52-21c-14-14-21-32-21-52c0-20 7-37 21-52c15-14 32-21 52-21c20 0 37 7 52 21c14 15 21 32 21 52z m73 0c0-21-3-38-9-51l-104-221c-3-6-8-11-14-15c-6-4-12-5-19-5c-7 0-13 1-19 5c-6 4-11 9-14 15l-104 221c-6 13-9 30-9 51c0 41 14 75 43 104c28 28 63 42 103 42c40 0 75-14 103-42c29-29 43-63 43-104z"/>
<glyph unicode="&#33;" d="M256 101l0 310c-28 0-54-7-78-20c-24-14-43-33-57-57c-13-24-20-50-20-78c0-28 7-54 20-78c14-24 33-43 57-57c24-13 50-20 78-20z m219 155c0-40-9-77-29-110c-20-34-46-60-80-80c-33-20-70-29-110-29c-40 0-77 9-110 29c-34 20-60 46-80 80c-20 33-29 70-29 110c0 40 9 77 29 110c20 34 46 60 80 80c33 20 70 29 110 29c40 0 77-9 110-29c34-20 60-46 80-80c20-33 29-70 29-110z"/>
<glyph unicode="&#34;" d="M256 183c0 7-2 13-6 20c0 0-1 2-4 6c-3 4-5 8-7 11c-3 3-5 7-8 12c-2 6-4 10-6 15c0 3-2 4-6 4c-3 0-5-1-6-4c-1-5-3-9-6-15c-2-5-5-9-7-12c-2-3-4-7-7-11c-3-4-4-6-4-6c-4-7-6-13-6-20c0-10 3-19 11-26c7-7 15-11 25-11c11 0 19 4 26 11c7 7 11 16 11 26z m146 36c0-40-14-74-43-103c-28-29-63-43-103-43c-40 0-75 14-103 43c-29 29-43 63-43 103c0 28 7 54 23 79c1 2 7 10 18 26c10 15 20 30 29 43c8 13 18 30 28 51c10 21 18 40 24 57c1 6 5 11 9 14c5 3 10 5 15 5c5 0 10-2 15-5c5-3 8-8 9-14c6-17 14-36 24-57c10-21 20-38 28-51c9-13 19-28 29-43c11-16 17-24 18-26c16-24 23-50 23-79z"/>
<glyph unicode="&#35;" d="M254 174l33 33l-44 43l-33-33l0-16l28 0l0-27z m125 205c-3 3-6 3-9 0l-100-100c-3-3-3-6 0-9c3-3 6-3 9 0l100 100c3 3 3 6 0 9z m23-169l0-55c0-22-8-42-24-58c-16-16-35-24-58-24l-238 0c-22 0-42 8-58 24c-16 16-24 36-24 58l0 238c0 23 8 42 24 58c16 16 36 24 58 24l238 0c12 0 23-2 33-7c3-1 5-3 6-6c0-4-1-6-3-9l-14-14c-3-2-6-3-9-2c-5 1-9 2-13 2l-238 0c-12 0-23-5-32-14c-9-9-13-19-13-32l0-238c0-12 4-23 13-32c9-9 20-13 32-13l238 0c13 0 23 4 32 13c9 9 14 20 14 32l0 36c0 3 1 5 2 7l19 18c2 3 6 4 10 2c3-2 5-4 5-8z m-27 211l82-83l-192-192l-82 0l0 83z m127-38l-27-26l-82 82l26 26c6 5 12 8 20 8c7 0 14-3 19-8l44-43c5-6 8-12 8-20c0-7-3-14-8-19z"/>
<glyph unicode="&#36;" d="M421 229l0-74c0-22-8-42-25-58c-16-16-35-24-58-24l-237 0c-23 0-42 8-59 24c-16 16-24 36-24 58l0 238c0 23 8 42 24 58c17 16 36 24 59 24l72 0c3 0 5 0 7-2c2-2 3-4 3-7c0-5-3-8-8-9c-15-5-27-11-38-17c-2-1-3-1-4-1l-32 0c-13 0-24-5-33-14c-9-9-13-19-13-32l0-238c0-12 4-23 13-32c9-9 20-13 33-13l237 0c13 0 24 4 33 13c9 9 13 20 13 32l0 62c0 3 2 6 5 8c5 2 11 6 16 10c3 3 6 4 10 3c4-2 6-5 6-9z m67 142l-109-110c-4-3-8-5-13-5c-3 0-5 0-7 1c-8 4-12 9-12 17l0 55l-45 0c-62 0-104-12-125-37c-23-26-30-71-22-135c1-5-1-8-5-10c-2-1-3-1-4-1c-3 0-5 2-7 4c-2 3-4 6-6 9c-2 3-6 10-11 19c-6 10-11 20-15 29c-4 9-7 20-11 32c-3 13-5 25-5 35c0 10 1 18 1 26c1 8 2 17 4 26c2 9 5 18 8 25c4 8 8 16 14 23c5 8 12 15 19 22c8 6 17 12 27 17c11 6 23 10 36 14c13 4 28 7 46 9c17 2 36 3 56 3l45 0l0 55c0 8 4 13 12 17c2 1 4 1 7 1c5 0 9-2 13-5l109-110c4-4 6-8 6-13c0-5-2-9-6-13z"/>
<glyph unicode="&#37;" d="M421 246l0-91c0-22-8-42-25-58c-16-16-35-24-58-24l-237 0c-23 0-42 8-59 24c-16 16-24 36-24 58l0 238c0 23 8 42 24 58c17 16 36 24 59 24l237 0c12 0 23-2 34-7c3-1 4-3 5-6c0-4 0-6-3-9l-14-14c-2-1-4-2-6-2c-1 0-2 0-3 0c-4 1-9 2-13 2l-237 0c-13 0-24-5-33-14c-9-9-13-19-13-32l0-238c0-12 4-23 13-32c9-9 20-13 33-13l237 0c13 0 24 4 33 13c9 9 13 20 13 32l0 73c0 2 1 5 3 6l18 19c2 1 4 2 6 2c2 0 3 0 4 0c4-2 6-5 6-9z m66 140l-233-233c-5-4-10-6-16-6c-7 0-12 2-17 6l-122 123c-5 5-7 10-7 17c0 6 2 11 7 16l31 31c5 5 10 7 16 7c7 0 12-2 17-7l75-75l185 185c4 5 10 7 16 7c6 0 12-2 16-7l32-31c4-5 6-10 6-17c0-6-2-11-6-16z"/>
<glyph unicode="&#38;" d="M512 256c0-5-2-9-5-13l-74-73c-3-4-7-5-12-5c-5 0-10 1-13 5c-4 4-6 8-6 13l0 36l-109 0l0-109l36 0c5 0 9-2 13-6c4-3 5-8 5-13c0-5-1-9-5-12l-73-74c-4-3-8-5-13-5c-5 0-9 2-13 5l-73 74c-4 3-5 7-5 12c0 5 1 10 5 13c4 4 8 6 13 6l36 0l0 109l-109 0l0-36c0-5-2-9-6-13c-3-4-8-5-13-5c-5 0-9 1-12 5l-74 73c-3 4-5 8-5 13c0 5 2 9 5 13l74 73c3 4 7 5 12 5c5 0 10-1 13-5c4-4 6-8 6-13l0-36l109 0l0 109l-36 0c-5 0-9 2-13 6c-4 3-5 8-5 13c0 5 1 9 5 12l73 74c4 3 8 5 13 5c5 0 9-2 13-5l73-74c4-3 5-7 5-12c0-5-1-10-5-13c-4-4-8-6-13-6l-36 0l0-109l109 0l0 36c0 5 2 9 6 13c3 4 8 5 13 5c5 0 9-1 12-5l74-73c3-4 5-8 5-13z"/>
<glyph unicode="&#39;" d="M389 472c4 3 7 5 10 3c2-1 3-4 3-9l0-420c0-5-1-8-3-9c-3-2-6 0-10 3l-202 203c-2 2-3 4-4 6l0-194c0-5-2-9-6-13c-3-4-7-5-12-5l-37 0c-5 0-9 1-13 5c-3 4-5 8-5 13l0 402c0 5 2 9 5 13c4 4 8 5 13 5l37 0c5 0 9-1 12-5c4-4 6-8 6-13l0-194c1 3 2 4 4 6z"/>
<glyph unicode="&#40;" d="M499 472c4 3 7 5 9 3c3-1 4-4 4-9l0-420c0-5-1-8-4-9c-2-2-5 0-9 3l-203 203c-1 2-3 4-3 6l0-203c0-5-2-8-4-9c-3-2-6 0-9 3l-203 203c-2 2-3 4-4 6l0-194c0-5-2-9-5-13c-4-4-8-5-13-5l-37 0c-5 0-9 1-13 5c-3 4-5 8-5 13l0 402c0 5 2 9 5 13c4 4 8 5 13 5l37 0c5 0 9-1 13-5c3-4 5-8 5-13l0-194c1 3 2 4 4 6l203 203c3 3 6 5 9 3c2-1 4-4 4-9l0-203c0 3 2 4 3 6z"/>
<glyph unicode="&#41;" d="M481 472c3 3 7 5 9 3c2-1 4-4 4-9l0-420c0-5-2-8-4-9c-2-2-6 0-9 3l-203 203c-2 2-3 4-4 6l0-203c0-5-1-8-3-9c-3-2-6 0-10 3l-202 203c-4 4-6 8-6 13c0 5 2 9 6 13l202 203c4 3 7 5 10 3c2-1 3-4 3-9l0-203c1 3 2 4 4 6z"/>
<glyph unicode="&#42;" d="M450 247l-379-211c-5-2-8-2-11-1c-4 2-5 6-5 11l0 420c0 5 1 9 5 11c3 1 6 1 11-1l379-211c5-3 7-6 7-9c0-3-2-6-7-9z"/>
<glyph unicode="&#43;" d="M475 457l0-402c0-5-1-9-5-13c-4-4-8-5-13-5l-146 0c-5 0-9 1-13 5c-4 4-5 8-5 13l0 402c0 5 1 9 5 13c4 4 8 5 13 5l146 0c5 0 9-1 13-5c4-4 5-8 5-13z m-256 0l0-402c0-5-1-9-5-13c-4-4-8-5-13-5l-146 0c-5 0-9 1-13 5c-4 4-5 8-5 13l0 402c0 5 1 9 5 13c4 4 8 5 13 5l146 0c5 0 9-1 13-5c4-4 5-8 5-13z"/>
<glyph unicode="&#44;" d="M475 457l0-402c0-5-1-9-5-13c-4-4-8-5-13-5l-402 0c-5 0-9 1-13 5c-4 4-5 8-5 13l0 402c0 5 1 9 5 13c4 4 8 5 13 5l402 0c5 0 9-1 13-5c4-4 5-8 5-13z"/>
<glyph unicode="&#45;" d="M31 40c-3-3-7-5-9-3c-2 1-4 4-4 9l0 420c0 5 2 8 4 9c2 2 6 0 9-3l203-203c2-2 3-3 4-6l0 203c0 5 1 8 3 9c3 2 6 0 10-3l202-203c4-4 6-8 6-13c0-5-2-9-6-13l-202-203c-4-3-7-5-10-3c-2 1-3 4-3 9l0 203c-1-2-2-4-4-6z"/>
<glyph unicode="&#46;" d="M13 40c-4-3-7-5-9-3c-3 1-4 4-4 9l0 420c0 5 1 8 4 9c2 2 5 0 9-3l203-203c1-2 2-3 3-6l0 203c0 5 2 8 4 9c3 2 6 0 9-3l203-203c2-2 3-3 4-6l0 194c0 5 2 9 5 13c4 4 8 5 13 5l37 0c5 0 9-1 13-5c3-4 5-8 5-13l0-402c0-5-2-9-5-13c-4-4-8-5-13-5l-37 0c-5 0-9 1-13 5c-3 4-5 8-5 13l0 194c-1-2-2-4-4-6l-203-203c-3-3-6-5-9-3c-2 1-4 4-4 9l0 203c-1-2-2-4-3-6z"/>
<glyph unicode="&#47;" d="M123 40c-4-3-7-5-10-3c-2 1-3 4-3 9l0 420c0 5 1 8 3 9c3 2 6 0 10-3l202-203c2-2 3-3 4-6l0 194c0 5 2 9 6 13c3 4 7 5 12 5l37 0c5 0 9-1 13-5c3-4 5-8 5-13l0-402c0-5-2-9-5-13c-4-4-8-5-13-5l-37 0c-5 0-9 1-12 5c-4 4-6 8-6 13l0 194c-1-2-2-4-4-6z"/>
<glyph unicode="&#58;" d="M40 232l203 203c4 4 8 6 13 6c5 0 9-2 13-6l203-203c3-3 5-6 3-9c-1-2-4-4-9-4l-420 0c-5 0-8 2-9 4c-2 3 0 6 3 9z m417-159l-402 0c-5 0-9 2-13 6c-4 3-5 7-5 12l0 74c0 5 1 9 5 12c4 4 8 6 13 6l402 0c5 0 9-2 13-6c4-3 5-7 5-12l0-74c0-5-1-9-5-12c-4-4-8-6-13-6z"/>
<glyph unicode="&#59;" d="M303 63l-186 186c-7 7-10 15-10 25c0 11 3 19 10 26l186 186c7 7 16 11 26 11c10 0 19-4 26-11l22-21c7-7 10-16 10-26c0-10-3-19-10-26l-139-139l139-138c7-8 10-16 10-26c0-10-3-19-10-26l-22-21c-7-7-16-11-26-11c-10 0-19 4-26 11z"/>
<glyph unicode="&#60;" d="M405 274c0-10-3-18-10-26l-186-186c-7-7-16-10-26-10c-10 0-19 3-26 10l-22 22c-7 7-10 16-10 26c0 10 3 18 10 25l139 139l-139 139c-7 7-10 16-10 26c0 10 3 19 10 26l22 21c7 7 16 11 26 11c10 0 19-4 26-11l186-186c7-7 10-16 10-26z"/>
<glyph unicode="&#61;" d="M384 238l0 36c0 5-2 10-5 13c-4 4-8 6-13 6l-73 0l0 73c0 5-2 9-6 13c-3 3-8 5-13 5l-36 0c-5 0-10-2-13-5c-4-4-6-8-6-13l0-73l-73 0c-5 0-9-2-13-6c-3-3-5-8-5-13l0-36c0-5 2-10 5-13c4-4 8-6 13-6l73 0l0-73c0-5 2-9 6-13c3-3 8-5 13-5l36 0c5 0 10 2 13 5c4 4 6 8 6 13l0 73l73 0c5 0 9 2 13 6c3 3 5 8 5 13z m91 18c0-40-9-77-29-110c-20-34-46-60-80-80c-33-20-70-29-110-29c-40 0-77 9-110 29c-34 20-60 46-80 80c-20 33-29 70-29 110c0 40 9 77 29 110c20 34 46 60 80 80c33 20 70 29 110 29c40 0 77-9 110-29c34-20 60-46 80-80c20-33 29-70 29-110z"/>
<glyph unicode="&#62;" d="M384 238l0 36c0 5-2 10-5 13c-4 4-8 6-13 6l-220 0c-5 0-9-2-13-6c-3-3-5-8-5-13l0-36c0-5 2-10 5-13c4-4 8-6 13-6l220 0c5 0 9 2 13 6c3 3 5 8 5 13z m91 18c0-40-9-77-29-110c-20-34-46-60-80-80c-33-20-70-29-110-29c-40 0-77 9-110 29c-34 20-60 46-80 80c-20 33-29 70-29 110c0 40 9 77 29 110c20 34 46 60 80 80c33 20 70 29 110 29c40 0 77-9 110-29c34-20 60-46 80-80c20-33 29-70 29-110z"/>
<glyph unicode="&#63;" d="M365 191c0 5-2 10-6 13l-51 52l51 52c4 3 6 8 6 13c0 5-2 9-6 13l-25 25c-4 4-8 6-13 6c-5 0-10-2-13-6l-52-51l-52 51c-3 4-8 6-13 6c-5 0-9-2-13-6l-25-25c-4-4-6-8-6-13c0-5 2-10 6-13l51-52l-51-52c-4-3-6-8-6-13c0-5 2-9 6-13l25-25c4-4 8-6 13-6c5 0 10 2 13 6l52 51l52-51c3-4 8-6 13-6c5 0 9 2 13 6l25 25c4 4 6 8 6 13z m110 65c0-40-9-77-29-110c-20-34-46-60-80-80c-33-20-70-29-110-29c-40 0-77 9-110 29c-34 20-60 46-80 80c-20 33-29 70-29 110c0 40 9 77 29 110c20 34 46 60 80 80c33 20 70 29 110 29c40 0 77-9 110-29c34-20 60-46 80-80c20-33 29-70 29-110z"/>
<glyph unicode="&#64;" d="M403 302c0 6-1 10-5 13l-26 26c-3 4-8 6-13 6c-5 0-9-2-12-6l-117-116l-65 64c-3 4-7 6-12 6c-5 0-10-2-13-6l-26-25c-4-4-5-8-5-13c0-6 1-10 5-13l103-104c4-3 8-5 13-5c5 0 10 2 13 5l155 155c4 4 5 8 5 13z m72-46c0-40-9-77-29-110c-20-34-46-60-80-80c-33-20-70-29-110-29c-40 0-77 9-110 29c-34 20-60 46-80 80c-20 33-29 70-29 110c0 40 9 77 29 110c20 34 46 60 80 80c33 20 70 29 110 29c40 0 77-9 110-29c34-20 60-46 80-80c20-33 29-70 29-110z"/>
<glyph unicode="&#91;" d="M293 119l0 55c0 2-1 5-3 6c-2 2-4 3-7 3l-54 0c-3 0-5-1-7-3c-2-1-3-4-3-6l0-55c0-3 1-5 3-7c2-1 4-2 7-2l54 0c3 0 5 1 7 2c2 2 3 4 3 7z m73 192c0 17-6 32-16 46c-11 15-24 26-40 34c-16 7-32 11-48 11c-47 0-82-20-106-61c-3-4-2-8 2-12l38-28c1-1 3-2 5-2c3 0 6 1 7 4c10 13 19 21 25 26c6 4 15 7 24 7c10 0 18-3 25-8c7-5 11-10 11-17c0-7-2-13-6-17c-4-4-10-9-20-13c-12-5-23-13-33-25c-10-11-15-23-15-35l0-11c0-2 1-5 3-6c2-2 4-3 7-3l54 0c3 0 5 1 7 3c2 1 3 4 3 6c0 4 2 9 6 14c4 6 9 11 15 15c6 3 11 6 14 8c4 2 8 5 13 10c6 4 10 9 13 13c3 5 6 11 8 18c3 7 4 14 4 23z m109-55c0-40-9-77-29-110c-20-34-46-60-80-80c-33-20-70-29-110-29c-40 0-77 9-110 29c-34 20-60 46-80 80c-20 33-29 70-29 110c0 40 9 77 29 110c20 34 46 60 80 80c33 20 70 29 110 29c40 0 77-9 110-29c34-20 60-46 80-80c20-33 29-70 29-110z"/>
<glyph unicode="&#93;" d="M329 119l0 46c0 2-1 4-2 6c-2 2-4 3-7 3l-27 0l0 146c0 3-1 5-3 7c-2 1-4 2-7 2l-91 0c-3 0-5-1-7-2c-1-2-2-4-2-7l0-46c0-2 1-5 2-6c2-2 4-3 7-3l27 0l0-91l-27 0c-3 0-5-1-7-3c-1-2-2-4-2-6l0-46c0-3 1-5 2-7c2-1 4-2 7-2l128 0c3 0 5 1 7 2c1 2 2 4 2 7z m-36 256l0 46c0 2-1 4-3 6c-2 2-4 3-7 3l-54 0c-3 0-5-1-7-3c-2-2-3-4-3-6l0-46c0-3 1-5 3-7c2-1 4-2 7-2l54 0c3 0 5 1 7 2c2 2 3 4 3 7z m182-119c0-40-9-77-29-110c-20-34-46-60-80-80c-33-20-70-29-110-29c-40 0-77 9-110 29c-34 20-60 46-80 80c-20 33-29 70-29 110c0 40 9 77 29 110c20 34 46 60 80 80c33 20 70 29 110 29c40 0 77-9 110-29c34-20 60-46 80-80c20-33 29-70 29-110z"/>
<glyph unicode="&#94;" d="M379 219l-32 0c-5 0-9 2-12 6c-4 3-6 8-6 13l0 36c0 5 2 10 6 13c3 4 7 6 12 6l32 0c-7 20-17 38-33 53c-15 16-33 26-53 33l0-32c0-5-2-9-6-12c-3-4-8-6-13-6l-36 0c-5 0-10 2-13 6c-4 3-6 7-6 12l0 32c-20-7-38-17-53-33c-16-15-26-33-33-53l32 0c5 0 9-2 12-6c4-3 6-8 6-13l0-36c0-5-2-10-6-13c-3-4-7-6-12-6l-32 0c7-20 17-38 33-53c15-16 33-26 53-33l0 32c0 5 2 9 6 12c3 4 8 6 13 6l36 0c5 0 10-2 13-6c4-3 6-7 6-12l0-32c20 7 38 17 53 33c16 15 26 33 33 53z m96 55l0-36c0-5-1-10-5-13c-4-4-8-6-13-6l-41 0c-7-30-21-57-44-79c-22-23-49-37-79-44l0-41c0-5-2-9-6-13c-3-4-8-5-13-5l-36 0c-5 0-10 1-13 5c-4 4-6 8-6 13l0 41c-30 7-57 21-79 44c-23 22-37 49-44 79l-41 0c-5 0-9 2-13 6c-4 3-5 8-5 13l0 36c0 5 1 10 5 13c4 4 8 6 13 6l41 0c7 30 21 57 44 79c22 23 49 37 79 44l0 41c0 5 2 9 6 13c3 4 8 5 13 5l36 0c5 0 10-1 13-5c4-4 6-8 6-13l0-41c30-7 57-21 79-44c23-22 37-49 44-79l41 0c5 0 9-2 13-6c4-3 5-8 5-13z"/>
<glyph unicode="&#95;" d="M350 204l-42-42c-2-2-4-3-6-3c-3 0-5 1-7 3l-39 39l-39-39c-2-2-4-3-7-3c-2 0-4 1-6 3l-42 42c-2 2-3 4-3 6c0 3 1 5 3 7l39 39l-39 39c-2 2-3 4-3 7c0 2 1 4 3 6l42 42c2 2 4 3 6 3c3 0 5-1 7-3l39-39l39 39c2 2 4 3 7 3c2 0 4-1 6-3l42-42c2-2 3-4 3-6c0-3-1-5-3-7l-39-39l39-39c2-2 3-4 3-7c0-2-1-4-3-6z m61 52c0 28-7 54-20 78c-14 24-33 43-57 57c-24 13-50 20-78 20c-28 0-54-7-78-20c-24-14-43-33-57-57c-13-24-20-50-20-78c0-28 7-54 20-78c14-24 33-43 57-57c24-13 50-20 78-20c28 0 54 7 78 20c24 14 43 33 57 57c13 24 20 50 20 78z m64 0c0-40-9-77-29-110c-20-34-46-60-80-80c-33-20-70-29-110-29c-40 0-77 9-110 29c-34 20-60 46-80 80c-20 33-29 70-29 110c0 40 9 77 29 110c20 34 46 60 80 80c33 20 70 29 110 29c40 0 77-9 110-29c34-20 60-46 80-80c20-33 29-70 29-110z"/>
<glyph unicode="&#96;" d="M371 280l-120-121c-4-3-8-5-13-5c-5 0-10 2-13 5l-84 84c-4 4-6 8-6 13c0 5 2 9 6 13l29 29c4 4 8 5 13 5c5 0 9-1 13-5l42-42l78 79c4 3 8 5 13 5c5 0 9-2 13-5l29-30c4-3 6-7 6-12c0-5-2-10-6-13z m40-24c0 28-7 54-20 78c-14 24-33 43-57 57c-24 13-50 20-78 20c-28 0-54-7-78-20c-24-14-43-33-57-57c-13-24-20-50-20-78c0-28 7-54 20-78c14-24 33-43 57-57c24-13 50-20 78-20c28 0 54 7 78 20c24 14 43 33 57 57c13 24 20 50 20 78z m64 0c0-40-9-77-29-110c-20-34-46-60-80-80c-33-20-70-29-110-29c-40 0-77 9-110 29c-34 20-60 46-80 80c-20 33-29 70-29 110c0 40 9 77 29 110c20 34 46 60 80 80c33 20 70 29 110 29c40 0 77-9 110-29c34-20 60-46 80-80c20-33 29-70 29-110z"/>
<glyph unicode="&#123;" d="M411 257c0 31-8 59-24 84l-216-215c26-17 55-25 85-25c21 0 41 4 60 12c20 8 36 19 50 33c14 14 25 31 33 50c8 19 12 40 12 61z m-285-86l216 216c-26 17-55 26-86 26c-28 0-54-7-78-21c-24-14-43-33-57-57c-13-24-20-50-20-78c0-31 8-59 25-86z m349 86c0-30-5-59-17-86c-12-27-27-51-47-70c-19-20-43-35-70-47c-27-12-55-17-85-17c-30 0-58 5-85 17c-27 12-51 27-70 47c-20 19-35 43-47 70c-12 27-17 56-17 86c0 30 5 58 17 85c12 28 27 51 47 71c19 19 43 35 70 46c27 12 55 18 85 18c30 0 58-6 85-18c27-11 51-27 70-46c20-20 35-43 47-71c12-27 17-55 17-85z"/>
<glyph unicode="&#124;" d="M475 256l0-37c0-10-3-18-9-25c-6-8-14-11-24-11l-201 0l84-84c7-7 10-16 10-26c0-10-3-19-10-26l-22-21c-7-7-15-11-26-11c-9 0-18 4-26 11l-186 186c-7 7-10 16-10 26c0 10 3 18 10 26l186 185c8 8 16 11 26 11c10 0 19-3 26-11l22-21c7-7 10-16 10-26c0-10-3-18-10-26l-84-83l201 0c10 0 18-4 24-11c6-7 9-16 9-26z"/>
<glyph unicode="&#125;" d="M457 238c0-11-3-19-10-26l-186-186c-8-7-17-11-26-11c-10 0-19 4-26 11l-22 21c-7 7-10 16-10 26c0 10 3 19 10 26l84 84l-201 0c-10 0-18 3-24 11c-6 7-9 15-9 25l0 37c0 10 3 19 9 26c6 7 14 11 24 11l201 0l-84 84c-7 6-10 15-10 25c0 11 3 19 10 26l22 21c7 8 16 11 26 11c10 0 18-3 26-11l186-186c7-6 10-15 10-25z"/>
<glyph unicode="&#126;" d="M479 235c0-10-4-19-11-26l-21-22c-8-7-16-10-26-10c-11 0-19 3-26 10l-84 84l0-201c0-10-4-18-11-24c-7-6-16-9-26-9l-36 0c-10 0-19 3-26 9c-7 6-11 14-11 24l0 201l-84-84c-7-7-15-10-26-10c-10 0-18 3-25 10l-22 22c-7 7-11 16-11 26c0 10 4 18 11 26l186 186c7 7 16 10 26 10c10 0 19-3 26-10l186-186c7-8 11-17 11-26z"/>
<glyph unicode="&#92;" d="M479 274c0-10-4-18-11-25l-186-187c-7-7-16-10-26-10c-10 0-19 3-26 10l-186 187c-7 6-11 15-11 25c0 10 4 19 11 26l21 22c8 7 17 10 26 10c11 0 19-3 26-10l84-84l0 201c0 10 4 18 11 26c7 7 16 10 26 10l36 0c10 0 19-3 26-10c7-8 11-16 11-26l0-201l84 84c7 7 15 10 26 10c9 0 18-3 26-10l21-22c7-7 11-16 11-26z"/>
<glyph unicode="&#57344;" d="M512 329c0-5-2-9-5-13l-147-146c-3-4-8-5-13-5c-5 0-9 1-12 5c-4 4-6 8-6 13l0 73l-64 0c-19 0-35-1-50-2c-15-1-29-3-44-6c-15-3-27-7-38-12c-11-5-21-12-30-20c-9-8-17-18-23-29c-6-11-11-24-14-39c-3-16-5-33-5-52c0-10 1-22 2-35c0-1 0-4 0-7c1-3 1-6 1-7c0-3-1-6-2-8c-2-1-4-2-7-2c-3 0-6 1-8 4c-1 2-3 4-4 7c-1 2-2 5-4 8c-1 4-2 6-3 7c-24 54-36 97-36 129c0 38 5 70 15 95c31 77 114 115 250 115l64 0l0 73c0 5 2 10 6 13c3 4 7 6 12 6c5 0 10-2 13-6l147-146c3-4 5-8 5-13z"/>
<glyph unicode="&#57345;" d="M252 210c0-2-1-4-3-6l-94-95l41-41c3-4 5-8 5-13c0-5-2-9-5-13c-4-4-8-5-13-5l-128 0c-5 0-9 1-13 5c-4 4-5 8-5 13l0 128c0 5 1 9 5 13c4 3 8 5 13 5c5 0 9-2 13-5l41-41l95 94c2 2 4 3 6 3c3 0 5-1 7-3l32-32c2-2 3-4 3-7z m223 247l0-128c0-5-1-9-5-13c-4-3-8-5-13-5c-5 0-9 2-13 5l-41 41l-95-94c-2-2-4-3-6-3c-3 0-5 1-7 3l-32 32c-2 2-3 4-3 7c0 2 1 4 3 6l94 95l-41 41c-3 4-5 8-5 13c0 5 2 9 5 13c4 4 8 5 13 5l128 0c5 0 9-1 13-5c4-4 5-8 5-13z"/>
<glyph unicode="&#57346;" d="M256 238l0-128c0-5-2-10-5-13c-4-4-8-6-13-6c-5 0-10 2-13 6l-41 41l-95-95c-2-2-4-3-7-3c-2 0-4 1-6 3l-33 33c-2 2-3 4-3 6c0 3 1 5 3 7l95 95l-41 41c-4 3-6 8-6 13c0 5 2 9 6 13c3 3 8 5 13 5l128 0c5 0 9-2 13-5c3-4 5-8 5-13z m216 192c0-3-1-5-3-7l-95-95l41-41c4-3 6-8 6-13c0-5-2-9-6-13c-3-3-8-5-13-5l-128 0c-5 0-9 2-13 5c-3 4-5 8-5 13l0 128c0 5 2 10 5 13c4 4 8 6 13 6c5 0 10-2 13-6l41-41l95 95c2 2 4 3 7 3c2 0 4-1 6-3l33-33c2-2 3-4 3-6z"/>
<glyph unicode="&#57347;" d="M457 302l0-55c0-8-3-14-8-20c-5-5-12-8-19-8l-119 0l0-118c0-8-3-15-8-20c-5-5-12-8-20-8l-54 0c-8 0-15 3-20 8c-5 5-8 12-8 20l0 118l-119 0c-7 0-14 3-19 8c-5 6-8 12-8 20l0 55c0 7 3 14 8 19c5 5 12 8 19 8l119 0l0 119c0 8 3 14 8 19c5 6 12 8 20 8l54 0c8 0 15-2 20-8c5-5 8-11 8-19l0-119l119 0c7 0 14-3 19-8c5-5 8-12 8-19z"/>
<glyph unicode="&#57348;" d="M457 302l0-55c0-8-3-14-8-20c-5-5-12-8-19-8l-348 0c-7 0-14 3-19 8c-5 6-8 12-8 20l0 55c0 7 3 14 8 19c5 5 12 8 19 8l348 0c7 0 14-3 19-8c5-5 8-12 8-19z"/>
<glyph unicode="&#57349;" d="M442 212c8-5 14-12 17-22c2-10 1-19-4-28l-18-31c-5-9-12-15-22-17c-10-3-19-2-28 3l-76 44l0-88c0-10-4-18-11-26c-7-7-16-10-26-10l-36 0c-10 0-19 3-26 10c-7 8-11 16-11 26l0 88l-76-44c-9-5-18-6-28-3c-10 2-17 8-22 17l-18 31c-5 9-6 18-4 28c3 10 9 17 17 22l76 44l-76 44c-8 5-14 12-17 22c-2 10-1 19 4 28l18 31c5 9 12 15 22 17c10 3 19 2 28-3l76-44l0 88c0 10 4 18 11 26c7 7 16 10 26 10l36 0c10 0 19-3 26-10c7-8 11-16 11-26l0-88l76 44c9 5 18 6 28 3c10-2 17-8 22-17l18-31c5-9 6-18 4-28c-3-10-9-17-17-22l-76-44z"/>
<glyph unicode="&#57350;" d="M256 475c40 0 77-9 110-29c34-20 60-46 80-80c20-33 29-70 29-110c0-40-9-77-29-110c-20-34-46-60-80-80c-33-20-70-29-110-29c-40 0-77 9-110 29c-34 20-60 46-80 80c-20 33-29 70-29 110c0 40 9 77 29 110c20 34 46 60 80 80c33 20 70 29 110 29z m37-356l0 54c0 3-1 5-3 7c-2 2-4 3-6 3l-55 0c-3 0-5-1-7-3c-2-2-3-4-3-7l0-54c0-2 1-5 3-6c2-2 4-3 7-3l55 0c2 0 4 1 6 2c2 2 3 4 3 7z m-1 98l5 178c0 2-1 4-3 5c-2 2-4 2-7 2l-62 0c-3 0-5 0-7-2c-2-1-3-3-3-5l5-178c0-1 1-3 3-5c1-1 4-2 6-2l53 0c3 0 5 1 7 2c2 2 3 4 3 5z"/>
<glyph unicode="&#57351;" d="M302 125l0 204l-92 0l0-204c0-5 2-9 5-11c4-3 8-4 14-4l54 0c6 0 10 1 14 4c3 2 5 6 5 11z m-131 241l56 0l-36 46c-5 6-11 9-20 9c-7 0-14-3-19-8c-5-6-8-12-8-20c0-7 3-14 8-19c5-6 12-8 19-8z m197 27c0 8-3 14-8 20c-5 5-12 8-19 8c-9 0-15-3-20-9l-36-46l56 0c7 0 14 2 19 8c5 5 8 12 8 19z m107-73l0-91c0-3 0-5-2-7c-2-2-4-3-7-3l-27 0l0-118c0-8-3-15-8-20c-5-5-12-8-20-8l-310 0c-8 0-15 3-20 8c-5 5-8 12-8 20l0 118l-27 0c-3 0-5 1-7 3c-2 2-2 4-2 7l0 91c0 3 0 5 2 7c2 1 4 2 7 2l125 0c-17 0-32 6-45 19c-12 12-19 27-19 45c0 18 7 33 19 45c13 13 28 19 45 19c21 0 37-7 48-22l37-47l37 47c11 15 27 22 48 22c17 0 32-6 45-19c12-12 19-27 19-45c0-18-7-33-19-45c-13-13-28-19-45-19l125 0c3 0 5-1 7-2c2-2 2-4 2-7z"/>
<glyph unicode="&#57352;" d="M366 311c0 5-2 9-6 13c-3 3-8 5-13 5c-32 0-63-5-90-14c-28-9-53-22-75-38c-21-16-44-37-67-63c-3-4-5-8-5-13c0-5 2-9 5-13c4-3 8-5 13-5c5 0 9 2 13 5c5 5 12 12 21 21c9 9 15 15 19 18c26 24 52 41 77 51c25 10 55 15 89 15c5 0 10 1 13 5c4 4 6 8 6 13z m146 56c0-18-2-36-6-55c-8-42-26-79-52-109c-27-30-61-56-103-77c-40-20-82-31-125-31c-28 0-55 5-81 14c-3 1-12 5-26 12c-13 7-23 10-27 10c-3 0-7-3-11-9c-5-6-9-12-13-20c-4-7-9-14-15-20c-6-6-12-9-17-9c-6 0-11 1-15 3c-4 2-7 5-9 7c-2 3-4 7-7 12c-1 1-1 2-2 3c-1 2-1 3-2 3c0 1 0 2-1 3c0 1 0 2 0 4c0 6 3 13 9 21c6 7 12 13 19 18c7 6 14 11 20 16c6 6 9 11 9 14c0 1-2 5-4 11c-3 6-5 11-5 13c-2 9-3 19-3 29c0 22 5 43 13 63c8 20 19 38 34 53c14 15 30 28 49 40c18 11 37 20 58 27c10 3 24 6 41 7c17 2 35 2 52 3c17 0 34 1 51 1c17 1 32 4 46 7c14 4 25 9 33 16l8 9c0 0 3 3 9 8c5 5 8 7 7 6c0-2 3 0 11 4c7 5 11 5 12 1c8 0 14-4 20-13c6-8 11-19 14-32c3-12 5-24 7-35c1-11 2-20 2-28z"/>
<glyph unicode="&#57353;" d="M457 27l0-18c0-2-1-4-3-6c-1-2-4-3-6-3l-384 0c-2 0-5 1-6 3c-2 2-3 4-3 6l0 18c0 3 1 5 3 7c1 2 4 3 6 3l384 0c2 0 5-1 6-3c2-2 3-4 3-7z m-73 302c0-15-2-28-7-41c-5-13-11-23-18-32c-8-9-16-17-25-25c-9-8-19-16-28-22c-9-7-17-14-25-21c-7-7-13-15-18-23c-5-9-7-18-7-28c0-18 6-39 19-64l-1 0l0 0c-17 8-32 16-45 24c-14 8-27 17-40 28c-13 11-24 23-32 35c-9 13-16 27-21 43c-5 17-8 34-8 53c0 15 2 29 7 41c5 13 11 23 18 32c8 9 16 18 25 25c9 8 19 16 28 23c9 6 17 13 25 20c7 7 13 15 18 23c5 9 7 18 7 28c0 18-6 39-19 64l1 0l0 0c17-8 32-16 45-24c14-8 27-17 40-28c13-11 24-23 32-35c9-13 16-27 21-43c5-17 8-34 8-53z"/>
<glyph unicode="&#57354;" d="M475 238c-29 45-65 78-108 101c11-20 17-42 17-65c0-35-13-65-38-90c-25-25-55-38-90-38c-35 0-65 13-90 38c-25 25-38 55-38 90c0 23 6 45 17 65c-43-23-79-56-108-101c25-39 57-70 95-94c38-23 79-34 124-34c45 0 86 11 124 34c38 24 70 55 95 94z m-205 109c0 4-2 7-4 10c-3 3-6 4-10 4c-24 0-44-8-61-25c-17-17-26-38-26-62c0-4 1-7 4-9c3-3 6-4 10-4c4 0 7 1 10 4c2 2 4 5 4 9c0 17 5 31 17 42c12 12 26 18 42 18c4 0 7 1 10 4c2 2 4 6 4 9z m242-109c0-7-2-13-6-20c-26-44-62-79-107-105c-45-27-93-40-143-40c-50 0-98 13-143 40c-45 26-81 61-107 105c-4 7-6 13-6 20c0 6 2 13 6 19c26 44 62 79 107 106c45 26 93 39 143 39c50 0 98-13 143-39c45-27 81-62 107-106c4-6 6-13 6-19z"/>
<glyph unicode="&#57355;" d="M159 131l22 40c-17 12-30 27-39 45c-9 19-14 38-14 58c0 23 6 45 17 65c-43-23-79-56-108-101c31-49 72-85 122-107z m111 216c0 4-2 7-4 10c-3 3-6 4-10 4c-24 0-44-8-61-25c-17-17-26-38-26-62c0-4 1-7 4-9c3-3 6-4 10-4c4 0 7 1 10 4c2 2 4 5 4 9c0 17 5 31 17 42c12 12 26 18 42 18c4 0 7 1 10 4c2 2 4 6 4 9z m103 55c0-1 0-2 0-3c-20-35-50-89-90-161c-40-72-70-126-90-162l-14-26c-2-3-5-4-8-4c-2 0-15 6-38 20c-3 2-5 4-5 8c0 2 4 10 13 25c-28 12-53 28-76 49c-23 21-43 44-59 70c-4 6-6 12-6 20c0 7 2 14 6 19c29 45 65 81 108 106c44 26 91 39 142 39c17 0 34-1 51-5l16 28c2 3 4 5 8 5c1 0 3-1 5-2c2-1 5-3 9-4c3-2 6-4 9-6c3-1 6-3 9-5c3-2 5-3 6-3c3-2 4-5 4-8z m11-128c0-26-8-50-23-72c-15-22-35-38-59-47l80 143c1-8 2-16 2-24z m128-36c0-7-2-14-6-20c-7-12-18-26-31-41c-28-33-62-59-99-77c-38-18-78-27-120-27l21 38c41 3 78 16 112 39c35 23 63 52 86 88c-21 34-48 62-80 84l18 32c18-12 35-27 52-44c17-17 30-34 41-53c4-6 6-13 6-19z"/>
<glyph unicode="&#57356;" d="M293 119l0 54c0 3-1 5-3 7c-2 2-4 3-7 3l-54 0c-3 0-5-1-7-3c-2-2-3-4-3-7l0-54c0-3 1-5 3-7c2-1 4-2 7-2l54 0c3 0 5 1 7 2c2 2 3 4 3 7z m-1 107l5 131c0 2-1 4-3 6c-2 2-4 3-7 3l-62 0c-3 0-5-1-7-3c-2-2-3-4-3-6l5-131c0-2 1-3 3-5c1-1 4-2 6-2l53 0c3 0 5 1 7 2c2 2 3 3 3 5z m-4 267l219-402c7-12 7-24 0-36c-3-6-8-10-13-14c-6-3-12-4-19-4l-438 0c-7 0-13 1-19 4c-5 4-10 8-13 14c-7 12-7 24 0 36l219 402c3 6 8 10 13 14c6 3 12 5 19 5c7 0 13-2 19-5c5-4 10-8 13-14z"/>
<glyph unicode="&#57357;" d="M448 466c8-10 10-24 3-42c-6-18-16-35-30-49l-46-46l45-199c1-4 0-7-3-9l-37-28c-1-1-3-2-5-2c-1 0-2 1-2 1c-3 0-5 2-6 4l-80 145l-74-74l15-55c1-3 0-6-2-9l-27-27c-2-2-4-3-7-3l-1 0c-2 1-5 2-6 4l-54 72l-72 54c-3 1-4 3-4 6c0 3 1 5 2 8l28 27c2 2 4 3 6 3c2 0 2 0 3 0l55-16l74 74l-145 80c-3 2-4 4-5 7c0 3 1 6 3 8l36 36c3 3 6 4 9 3l190-46l46 46c14 14 30 25 49 31c18 6 32 5 42-4z"/>
<glyph unicode="&#57358;" d="M55 37l82 0l0 82l-82 0z m100 0l92 0l0 82l-92 0z m-100 100l82 0l0 92l-82 0z m100 0l92 0l0 92l-92 0z m-100 110l82 0l0 82l-82 0z m210-210l92 0l0 82l-92 0z m-110 210l92 0l0 82l-92 0z m220-210l82 0l0 82l-82 0z m-110 100l92 0l0 92l-92 0z m-100 247l0 82c0 3-1 5-3 7c-2 2-4 2-7 2l-18 0c-2 0-4 0-6-2c-2-2-3-4-3-7l0-82c0-2 1-5 3-6c2-2 4-3 6-3l18 0c3 0 5 1 7 3c2 1 3 4 3 6z m210-247l82 0l0 92l-82 0z m-110 110l92 0l0 82l-92 0z m110 0l82 0l0 82l-82 0z m9 137l0 82c0 3-1 5-3 7c-2 2-4 2-6 2l-18 0c-3 0-5 0-7-2c-2-2-3-4-3-7l0-82c0-2 1-5 3-6c2-2 4-3 7-3l18 0c2 0 4 1 6 3c2 1 3 4 3 6z m110 18l0-365c0-10-4-19-11-26c-7-7-16-11-26-11l-402 0c-10 0-19 4-26 11c-7 7-11 16-11 26l0 365c0 10 4 19 11 26c7 7 16 11 26 11l36 0l0 27c0 13 5 24 14 33c9 9 20 13 32 13l18 0c13 0 24-4 33-13c9-9 13-20 13-33l0-27l110 0l0 27c0 13 4 24 13 33c9 9 20 13 33 13l18 0c12 0 23-4 32-13c9-9 14-20 14-33l0-27l36 0c10 0 19-4 26-11c7-7 11-16 11-26z"/>
<glyph unicode="&#57359;" d="M190 375c-11-18-24-44-39-78c-4 8-8 15-10 20c-3 6-7 12-12 18c-5 7-10 13-15 17c-4 3-10 7-18 10c-7 2-14 4-23 4l-64 0c-3 0-5 1-6 2c-2 2-3 4-3 7l0 55c0 2 1 5 3 6c1 2 3 3 6 3l64 0c48 0 87-22 117-64z m322-229c0-2-1-5-3-6l-91-92c-2-1-4-2-7-2c-2 0-4 1-6 2c-2 2-3 4-3 7l0 55c-6 0-14 0-24 0c-10-1-18-1-23-1c-5 0-12 0-21 1c-9 0-15 0-20 1c-5 1-11 2-19 3c-7 1-13 3-18 5c-4 2-10 5-16 8c-6 4-12 7-17 12c-5 4-10 9-16 15c-5 6-11 13-16 20c12 18 24 44 39 78c4-9 8-15 11-21c3-5 6-11 11-18c5-7 10-12 15-16c5-4 11-7 18-10c7-3 15-4 23-4l73 0l0 55c0 2 1 5 3 6c2 2 4 3 6 3c3 0 5-1 7-3l91-91c2-2 3-4 3-7z m0 256c0-2-1-5-3-6l-91-92c-2-1-4-2-7-2c-2 0-4 1-6 2c-2 2-3 4-3 7l0 55l-73 0c-9 0-17-2-25-5c-7-2-14-7-19-12c-6-6-11-12-15-18c-4-6-8-13-13-22c-6-12-13-28-22-49c-6-13-10-23-14-32c-4-8-9-18-16-30c-6-11-12-21-18-28c-6-8-13-16-21-24c-8-8-17-15-26-20c-9-4-19-8-30-12c-12-3-24-4-37-4l-64 0c-3 0-5 1-6 2c-2 2-3 4-3 7l0 55c0 2 1 5 3 6c1 2 3 3 6 3l64 0c9 0 18 1 25 4c7 3 14 7 20 13c5 6 10 12 14 18c4 6 9 13 13 22c6 12 14 28 22 49c6 12 11 23 15 31c3 9 9 19 15 30c6 12 12 21 18 29c6 7 13 15 21 24c9 8 17 14 26 19c9 5 19 9 31 12c11 3 23 5 36 5l73 0l0 55c0 2 1 5 3 6c2 2 4 3 6 3c3 0 5-1 7-3l91-91c2-2 3-4 3-7z"/>
<glyph unicode="&#57360;" d="M512 256c0-33-11-64-34-92c-23-28-54-50-93-66c-40-17-83-25-129-25c-13 0-27 1-41 2c-38-33-82-56-132-69c-9-2-20-4-32-6c-4 0-7 0-9 3c-3 2-4 4-5 8l0 0c-1 1-1 2 0 4c0 1 0 2 0 2c0 1 1 2 2 3l1 3c0 0 1 1 2 2c2 2 2 3 3 3c1 1 4 5 8 10c5 5 8 8 10 10c2 3 5 6 9 12c4 5 7 10 9 14c3 5 5 10 8 17c3 7 5 14 8 22c-30 17-54 38-71 63c-17 25-26 51-26 80c0 25 7 48 20 71c14 23 32 42 55 58c23 17 50 30 82 39c31 10 64 15 99 15c46 0 89-8 129-25c39-16 70-38 93-66c23-28 34-59 34-92z"/>
<glyph unicode="&#57361;" d="M475 274l0-36c0-39-9-73-28-104c-18-30-45-54-78-72c-33-17-71-25-113-25c-42 0-80 8-113 25c-33 18-60 42-78 72c-19 31-28 65-28 104l0 36c0 5 1 10 5 13c4 4 8 6 13 6l110 0c5 0 9-2 12-6c4-3 6-8 6-13l0-36c0-10 2-19 7-26c4-7 9-13 15-16c6-4 12-7 20-9c8-2 14-3 18-4c5 0 9 0 13 0c4 0 8 0 13 0c4 1 10 2 18 4c8 2 14 5 20 9c6 3 11 9 15 16c5 7 7 16 7 26l0 36c0 5 2 10 6 13c3 4 7 6 12 6l110 0c5 0 9-2 13-6c4-3 5-8 5-13z m-292 183l0-110c0-5-2-9-6-12c-3-4-7-6-12-6l-110 0c-5 0-9 2-13 6c-4 3-5 7-5 12l0 110c0 5 1 9 5 13c4 4 8 5 13 5l110 0c5 0 9-1 12-5c4-4 6-8 6-13z m292 0l0-110c0-5-1-9-5-12c-4-4-8-6-13-6l-110 0c-5 0-9 2-12 6c-4 3-6 7-6 12l0 110c0 5 2 9 6 13c3 4 7 5 12 5l110 0c5 0 9-1 13-5c4-4 5-8 5-13z"/>
<glyph unicode="&#57362;" d="M479 165c0-11-4-19-11-26l-21-22c-8-7-16-10-26-10c-11 0-19 3-26 10l-139 139l-139-139c-7-7-15-10-26-10c-10 0-18 3-25 10l-22 22c-7 7-11 15-11 26c0 10 4 18 11 26l186 186c7 7 16 10 26 10c10 0 19-3 26-10l186-186c7-8 11-16 11-26z"/>
<glyph unicode="&#57363;" d="M479 311c0-10-4-19-11-26l-186-186c-7-7-16-11-26-11c-10 0-19 4-26 11l-186 186c-7 7-11 16-11 26c0 10 4 19 11 26l21 21c8 7 17 11 26 11c11 0 19-4 26-11l139-139l139 139c7 7 15 11 26 11c9 0 18-4 26-11l21-21c7-8 11-16 11-26z"/>
<glyph unicode="&#57364;" d="M341 94c0-2-1-4-2-6c-2-2-4-3-6-3l-256 0c-2 0-3 1-4 1c-1 0-2 1-2 2c-1 1-1 1-2 2c0 0 0 1 0 3c-1 1-1 2-1 3l0 160l-51 0c-5 0-9 2-12 5c-3 3-5 7-5 12c0 4 1 8 4 11l85 102c4 4 8 6 13 6c6 0 10-2 13-6l86-102c2-3 4-7 4-11c0-5-2-9-5-12c-4-3-8-5-12-5l-51 0l0-102l153 0c3 0 5-1 7-3l42-52c2-1 2-3 2-5z m171 111c0-4-1-8-4-11l-85-103c-4-4-8-6-13-6c-6 0-10 2-13 6l-86 103c-2 3-4 7-4 11c0 4 2 8 5 12c4 3 8 5 12 5l51 0l0 102l-153 0c-3 0-5 1-7 3l-42 52c-2 1-2 3-2 5c0 2 1 4 2 6c2 2 4 3 6 3l256 0c2 0 3-1 4-1c1 0 2-1 2-2c1-1 1-1 2-2c0-1 0-2 0-3c1-2 1-3 1-3l0-160l51 0c5 0 9-2 12-5c3-4 5-8 5-12z"/>
<glyph unicode="&#57365;" d="M201 73c0-10-3-19-11-26c-7-7-15-10-25-10c-11 0-19 3-26 10c-7 7-11 16-11 26c0 10 4 19 11 26c7 7 15 11 26 11c10 0 18-4 25-11c8-7 11-16 11-26z m256 0c0-10-3-19-11-26c-7-7-15-10-25-10c-11 0-19 3-26 10c-7 7-11 16-11 26c0 10 4 19 11 26c7 7 15 11 26 11c10 0 18-4 25-11c8-7 11-16 11-26z m37 311l0-146c0-5-2-9-5-12c-3-4-7-6-12-7l-298-34c0-2 1-4 1-7c1-2 2-5 2-7c1-2 1-5 1-6c0-3-2-10-7-19l263 0c5 0 9-2 13-5c3-4 5-8 5-13c0-5-2-9-5-13c-4-3-8-5-13-5l-293 0c-5 0-9 2-13 5c-3 4-5 8-5 13c0 3 1 6 3 11c2 5 5 11 9 17c3 7 5 10 5 11l-50 235l-58 0c-5 0-10 2-13 6c-4 3-6 8-6 13c0 5 2 9 6 12c3 4 8 6 13 6l73 0c3 0 5-1 8-2c2-1 4-3 6-4c1-2 2-4 3-7c1-3 2-6 2-8c1-2 1-5 2-8c1-4 1-6 1-8l343 0c5 0 10-2 13-5c4-4 6-8 6-13z"/>
<glyph unicode="&#57366;" d="M494 338l0-201c0-17-7-32-19-45c-13-13-28-19-45-19l-348 0c-17 0-32 6-45 19c-12 13-19 28-19 45l0 274c0 18 7 33 19 46c13 12 28 18 45 18l92 0c17 0 32-6 45-18c12-13 19-28 19-46l0-9l192 0c17 0 32-6 45-19c12-12 19-27 19-45z"/>
<glyph unicode="&#57367;" d="M501 241c0-5-3-11-8-18l-90-105c-7-9-18-17-32-23c-14-7-26-10-38-10l-290 0c-6 0-12 1-16 4c-5 2-8 6-8 11c0 6 3 12 9 18l89 105c8 10 19 17 32 24c14 6 27 9 39 9l290 0c6 0 11-1 16-3c5-3 7-7 7-12z m-91 92l0-43l-222 0c-17 0-34-4-53-13c-18-8-33-19-44-31l-89-106l-2-2c0 1 0 2 0 4c0 1 0 2 0 3l0 256c0 16 6 30 18 42c11 12 25 18 42 18l85 0c16 0 30-6 42-18c12-12 18-26 18-42l0-8l145 0c16 0 30-6 42-18c12-12 18-26 18-42z"/>
<glyph unicode="&#57368;" d="M347 421c0-5-1-10-5-13c-4-4-8-6-13-6l-36 0l0-292l36 0c5 0 9-2 13-6c4-3 5-8 5-13c0-5-1-9-5-12l-73-74c-4-3-8-5-13-5c-5 0-9 2-13 5l-73 74c-4 3-5 7-5 12c0 5 1 10 5 13c4 4 8 6 13 6l36 0l0 292l-36 0c-5 0-9 2-13 6c-4 3-5 8-5 13c0 5 1 9 5 12l73 74c4 3 8 5 13 5c5 0 9-2 13-5l73-74c4-3 5-7 5-12z"/>
<glyph unicode="&#57369;" d="M512 256c0-5-2-9-5-13l-74-73c-3-4-7-5-12-5c-5 0-10 1-13 5c-4 4-6 8-6 13l0 36l-292 0l0-36c0-5-2-9-6-13c-3-4-8-5-13-5c-5 0-9 1-12 5l-74 73c-3 4-5 8-5 13c0 5 2 9 5 13l74 73c3 4 7 5 12 5c5 0 10-1 13-5c4-4 6-8 6-13l0-36l292 0l0 36c0 5 2 9 6 13c3 4 8 5 13 5c5 0 9-1 12-5l74-73c3-4 5-8 5-13z"/>
<glyph unicode="&#57370;" d="M137 222l0-103l-69 0l0 103z m102 136l0-239l-68 0l0 239z m102-68l0-171l-68 0l0 171z m103 103l0-274l-69 0l0 274z m34-299l0 324c0 2-1 4-3 6c-1 2-3 3-6 3l-426 0c-3 0-5-1-6-3c-2-2-3-4-3-6l0-324c0-2 1-4 3-6c1-2 3-3 6-3l426 0c3 0 5 1 6 3c2 2 3 4 3 6z m34 324l0-324c0-12-4-22-13-30c-8-9-18-13-30-13l-426 0c-12 0-22 4-30 13c-9 8-13 18-13 30l0 324c0 12 4 22 13 30c8 9 18 13 30 13l426 0c12 0 22-4 30-13c9-8 13-18 13-30z"/>
<glyph unicode="&#57371;" d="M402 338c-10-5-22-8-34-10c13 8 22 19 26 33c-12-7-25-12-38-14c-12 12-26 19-44 19c-16 0-30-6-42-18c-12-12-18-26-18-42c0-6 1-10 2-14c-25 1-48 8-69 19c-22 11-40 25-55 44c-6-10-9-20-9-30c0-22 9-39 26-50c-9 0-18 2-28 7l0-1c0-14 5-27 14-38c10-11 21-18 35-20c-5-2-10-3-14-3c-3 0-6 1-11 1c4-12 11-21 21-29c10-8 22-12 35-12c-23-17-47-26-75-26c-5 0-10 0-14 1c28-18 59-27 92-27c21 0 41 3 60 10c18 7 34 16 48 27c13 12 25 25 34 39c10 15 17 31 22 47c4 16 7 32 7 48c0 3-1 6-1 8c12 8 22 19 30 31z m73 55l0-274c0-23-8-42-24-58c-16-16-35-24-58-24l-274 0c-23 0-42 8-58 24c-16 16-24 35-24 58l0 274c0 23 8 42 24 58c16 16 35 24 58 24l274 0c23 0 42-8 58-24c16-16 24-35 24-58z"/>
<glyph unicode="&#57372;" d="M410 250l7 62l-57 0l0 31c0 10 1 16 4 20c3 4 10 6 21 6l31 0l0 62l-50 0c-29 0-49-7-62-20c-13-14-19-34-19-61l0-38l-37 0l0-62l37 0l0-182l75 0l0 182z m65 143l0-274c0-23-8-42-24-58c-16-16-35-24-58-24l-274 0c-23 0-42 8-58 24c-16 16-24 35-24 58l0 274c0 23 8 42 24 58c16 16 35 24 58 24l274 0c23 0 42-8 58-24c16-16 24-35 24-58z"/>
<glyph unicode="&#57373;" d="M265 274c0 3-1 5-2 7c-2 2-4 2-7 2c-13 0-23-4-32-13c-9-9-14-20-14-32c0-3 1-5 3-7c2-2 4-2 6-2c3 0 5 0 7 2c2 2 3 4 3 7c0 7 2 14 8 19c5 5 11 8 19 8c3 0 5 1 7 3c1 1 2 4 2 6z m64-37c0-20-7-37-21-52c-15-14-32-21-52-21c-20 0-37 7-52 21c-14 15-21 32-21 52c0 20 7 38 21 52c15 14 32 21 52 21c20 0 37-7 52-21c14-14 21-32 21-52z m-292-164l438 0l0 37l-438 0z m329 164c0 30-11 56-32 78c-22 21-48 32-78 32c-30 0-56-11-78-32c-21-22-32-48-32-78c0-30 11-56 32-77c22-22 48-33 78-33c30 0 56 11 78 33c21 21 32 47 32 77z m-293 184l110 0l0 36l-110 0z m-36-55l438 0l0 73l-236 0l-18-37l-184 0z m475 73l0-366c0-10-4-19-11-26c-7-7-15-10-26-10l-438 0c-11 0-19 3-26 10c-7 7-11 16-11 26l0 366c0 10 4 19 11 26c7 7 15 10 26 10l438 0c11 0 19-3 26-10c7-7 11-16 11-26z"/>
<glyph unicode="&#57374;" d="M238 366c0 15-6 28-16 39c-11 10-24 16-39 16c-15 0-28-6-39-16c-11-11-16-24-16-39c0-8 2-16 5-24c-7 4-15 5-23 5c-16 0-28-5-39-16c-11-10-16-23-16-38c0-16 5-29 16-39c11-11 23-16 39-16c15 0 28 5 39 16c10 10 16 23 16 39c0 8-2 15-6 23c8-3 16-5 24-5c15 0 28 5 39 16c10 11 16 23 16 39z m243-201c0-4-5-10-14-19c-9-10-16-14-19-14c-2 0-4 1-8 4c-4 3-7 6-11 10c-3 3-6 7-11 11c-4 5-6 7-7 8l-27-28l63-63c5-5 8-12 8-19c0-8-4-16-11-23c-8-8-15-11-23-11c-8 0-15 2-20 8l-192 191c-33-25-68-37-104-37c-31 0-56 10-76 29c-19 20-29 45-29 76c0 30 9 60 27 89c18 30 42 53 71 71c29 18 59 27 89 27c31 0 57-9 76-29c20-19 30-45 30-76c0-36-13-70-38-104l102-101l27 27c-1 1-3 3-7 7c-5 4-9 8-12 11c-3 3-6 7-9 10c-3 4-5 7-5 9c0 3 5 9 14 18c9 10 16 14 19 14c2 0 5-1 7-2c1-2 5-6 13-13c7-7 15-15 23-23c8-8 16-16 25-24c8-9 15-16 21-23c5-6 8-10 8-11z"/>
<glyph unicode="&#57375;" d="M239 256c0 19-7 35-20 48c-13 14-29 20-48 20c-19 0-35-6-49-20c-13-13-20-29-20-48c0-19 7-35 20-48c14-14 30-20 49-20c19 0 35 6 48 20c13 13 20 29 20 48z m205-137c0 10-4 18-10 24c-7 7-15 11-24 11c-10 0-18-4-24-11c-7-6-11-14-11-24c0-9 4-17 10-24c7-6 15-10 25-10c9 0 17 4 24 10c6 7 10 15 10 24z m0 274c0 9-4 17-10 24c-7 6-15 10-24 10c-10 0-18-4-24-10c-7-7-11-15-11-24c0-10 4-18 10-25c7-6 15-10 25-10c9 0 17 4 24 10c6 7 10 15 10 25z m-103-113l0-49c0-2 0-4-2-5c-1-2-2-3-4-3l-41-6c-2-7-5-13-9-21c6-8 14-18 24-30c2-2 2-4 2-6c0-2 0-4-2-5c-4-5-11-13-22-24c-10-10-17-16-21-16c-2 0-3 1-5 2l-31 24c-6-3-13-6-20-8c-2-19-4-33-7-41c-1-5-3-7-8-7l-49 0c-2 0-4 1-5 2c-2 2-3 3-3 5l-6 41c-6 2-13 4-20 8l-32-24c-1-1-3-2-5-2c-2 0-4 1-6 3c-25 23-38 37-38 42c0 2 1 4 2 5c2 3 5 8 11 14c5 7 9 13 12 17c-4 8-7 15-9 22l-41 6c-1 0-3 1-4 3c-1 1-2 3-2 5l0 49c0 2 1 4 2 5c1 2 3 3 4 3l41 6c2 7 5 13 9 21c-6 8-14 18-24 30c-1 2-2 4-2 6c0 2 1 4 2 5c4 5 11 13 22 24c11 10 18 16 21 16c2 0 4-1 6-2l30-24c6 3 13 6 21 8c2 19 4 33 6 41c1 5 4 7 8 7l49 0c2 0 4-1 6-2c1-2 2-3 2-5l7-41c6-2 12-4 20-8l31 24c1 1 3 2 5 2c2 0 4-1 6-3c26-23 38-37 38-42c0-2 0-4-1-5c-3-3-6-8-12-15c-5-6-9-12-12-16c4-8 7-16 9-22l41-6c2 0 3-1 4-3c2-1 2-3 2-5z m171-142l0-37c0-3-13-6-40-8c-2-5-5-10-8-14c9-20 14-33 14-37c0-1 0-1-1-2c-22-13-33-19-33-19c-2 0-6 4-13 13c-6 8-11 14-13 18c-4-1-7-1-8-1c-2 0-5 0-8 1c-3-4-8-10-14-18c-7-9-11-13-13-13c0 0-11 6-33 19c0 1-1 1-1 2c0 4 5 17 14 37c-3 4-6 9-8 14c-27 2-40 5-40 8l0 37c0 3 13 6 40 8c2 6 5 10 8 14c-9 20-14 33-14 37c0 1 1 1 1 2c1 0 4 2 10 5c5 3 10 6 15 9c5 3 8 5 8 5c2 0 6-5 13-13c6-8 11-14 14-18c3 1 6 1 8 1c1 0 4 0 8-1c9 13 17 23 24 30l2 1c0 0 11-7 33-19c1-1 1-1 1-2c0-4-5-17-14-37c3-4 6-8 8-14c27-2 40-5 40-8z m0 273l0-37c0-3-13-6-40-8c-2-5-5-10-8-14c9-20 14-33 14-37c0-1 0-1-1-2c-22-13-33-19-33-19c-2 0-6 4-13 13c-6 8-11 14-13 18c-4-1-7-1-8-1c-2 0-5 0-8 1c-3-4-8-10-14-18c-7-9-11-13-13-13c0 0-11 6-33 19c0 1-1 1-1 2c0 4 5 17 14 37c-3 4-6 9-8 14c-27 2-40 5-40 8l0 37c0 3 13 6 40 8c2 6 5 10 8 14c-9 20-14 33-14 37c0 1 1 1 1 2c1 0 4 2 10 5c5 4 10 7 15 9c5 3 8 5 8 5c2 0 6-4 13-13c6-8 11-14 14-18c3 1 6 1 8 1c1 0 4 0 8-1c9 13 17 23 24 30l2 1c0 0 11-7 33-19c1-1 1-1 1-2c0-4-5-17-14-37c3-4 6-8 8-14c27-2 40-5 40-8z"/>
<glyph unicode="&#57376;" d="M402 293c0-27-9-51-27-74c-17-22-42-40-73-53c-31-13-64-20-101-20c-16 0-33 2-50 5c-24-17-50-29-80-37c-6-1-15-3-24-4l-1 0c-2 0-4 0-6 2c-2 2-3 4-3 6c0 1 0 1 0 2c0 1 0 1 0 2c0 0 0 1 0 1l1 2c0 0 0 0 1 1c1 1 1 2 1 2c0 0 1 0 1 1c1 1 2 2 2 2c1 1 3 3 6 7c4 3 6 6 8 8c1 2 3 5 6 8c3 4 5 8 7 11c2 4 4 8 6 13c-24 14-42 31-56 51c-13 20-20 41-20 64c0 26 9 51 27 73c18 22 42 40 73 53c31 13 65 20 101 20c37 0 70-7 101-20c31-13 56-31 73-53c18-22 27-47 27-73z m110-74c0-22-7-44-20-64c-14-20-32-36-56-50c2-5 4-9 6-13c2-4 4-7 7-11c3-3 5-6 6-8c2-2 4-5 8-8c3-4 5-6 6-8c1 0 1 0 2-1c0-1 1-1 1-1c0-1 1-1 1-2c0 0 1-1 1-1l1-2c0 0 0 0 0-1c1-2 1-2 0-2c0 0 0-1 0-2c0-3-2-5-4-6c-1-2-4-3-6-2c-9 1-18 2-24 4c-30 8-56 20-80 37c-17-3-34-5-50-5c-52 0-97 13-135 38c11-1 19-1 25-1c31 0 60 4 88 13c29 8 54 20 76 36c24 18 42 38 55 61c12 23 19 47 19 73c0 14-2 29-7 43c25-14 44-30 59-51c14-20 21-42 21-66z"/>
<glyph unicode="&#57377;" d="M110 128c0 5-2 9-6 13c-3 3-8 5-13 5c-5 0-9-2-12-5c-4-4-6-8-6-13c0-5 2-9 6-13c3-3 7-5 12-5c5 0 10 2 13 5c4 4 6 8 6 13z m329 165c0 9-4 18-11 25c-8 7-16 11-26 11l-100 0c0 11 4 26 13 46c10 19 14 34 14 46c0 18-3 32-9 41c-6 9-18 13-37 13c-5-5-8-13-10-24c-3-11-6-23-9-36c-4-12-9-23-17-31c-4-4-12-13-22-26c-1-1-3-4-7-9c-3-4-6-8-9-11c-2-3-5-7-10-12c-4-5-8-10-11-13c-3-3-7-7-11-10c-4-4-8-6-11-8c-4-2-8-2-11-2l-9 0l0-183l9 0c3 0 6-1 9-1c4-1 7-1 10-2c3-1 6-2 11-3c4-2 8-3 10-3c2-1 5-2 10-4c4-2 7-3 8-3c40-14 73-21 98-21l34 0c37 0 55 16 55 48c0 5 0 10-1 16c6 3 10 8 13 15c4 7 5 14 5 21c0 7-1 13-5 20c10 9 15 20 15 34c0 4-1 10-2 15c-2 6-5 11-8 14c7 0 12 5 16 13c4 9 6 17 6 24z m36 0c0-17-4-33-14-47c2-6 3-13 3-19c0-15-4-29-11-42c1-4 1-8 1-12c0-19-6-36-17-51c0-26-8-47-24-62c-17-16-38-23-65-23l-37 0c-18 0-36 2-54 6c-18 4-39 11-62 19c-22 7-35 11-40 11l-82 0c-10 0-19 4-26 11c-7 7-10 16-10 26l0 183c0 10 3 18 10 25c7 8 16 11 26 11l78 0c7 5 20 19 40 44c11 15 21 27 30 37c5 5 8 13 10 24c2 12 5 24 9 37c4 12 10 22 18 30c7 7 16 11 25 11c16 0 31-3 44-9c12-6 22-16 29-29c6-13 10-31 10-53c0-18-5-36-14-55l50 0c20 0 37-8 52-22c14-14 21-32 21-51z"/>
<glyph unicode="&#57378;" d="M110 384c0 5-2 9-6 13c-3 3-8 5-13 5c-5 0-9-2-12-5c-4-4-6-8-6-13c0-5 2-9 6-13c3-3 7-5 12-5c5 0 10 2 13 5c4 4 6 8 6 13z m329-165c0 7-2 15-6 24c-4 8-9 13-16 13c3 3 6 8 8 14c1 5 2 11 2 15c0 14-5 25-15 34c4 7 5 13 5 20c0 7-1 14-5 21c-3 7-7 12-13 15c1 6 1 11 1 16c0 16-4 28-14 36c-9 8-22 12-39 12l-36 0c-25 0-58-7-98-21c-1 0-4-1-8-3c-5-2-8-3-10-4c-2 0-6-1-10-3c-5-1-8-2-11-3c-3-1-6-1-10-2c-3 0-6-1-9-1l-9 0l0-183l9 0c3 0 7 0 11-2c3-2 7-4 11-8c4-3 8-7 11-10c3-3 7-8 11-13c5-5 8-9 10-12c3-3 6-7 9-11c4-5 6-8 7-9c10-13 18-22 22-26c8-8 13-19 17-31c3-13 6-25 9-36c2-11 5-19 10-24c19 0 31 4 37 13c6 9 9 23 9 41c0 12-4 27-14 46c-9 20-13 35-13 46l100 0c10 0 18 4 26 11c7 7 11 16 11 25z m36 0c0-19-7-37-21-51c-15-14-32-22-52-22l-50 0c9-19 14-37 14-55c0-22-4-40-10-53c-7-13-17-23-29-29c-13-6-28-9-44-9c-9 0-18 4-25 11c-7 6-12 14-16 23c-4 9-6 18-7 26c-1 8-3 16-5 24c-2 8-5 14-9 18c-9 10-19 22-30 37c-20 25-33 39-40 44l-78 0c-10 0-19 3-26 11c-7 7-10 15-10 25l0 183c0 10 3 19 10 26c7 7 16 11 26 11l82 0c5 0 18 4 40 11c24 9 45 15 64 19c18 4 37 6 57 6l32 0c26 0 48-7 64-22c17-15 25-36 25-62l0-1c11-15 17-32 17-51c0-4 0-8-1-12c7-13 11-27 11-42c0-6-1-13-3-19c10-14 14-30 14-47z"/>
<glyph unicode="&#57379;" d="M366 503l0-383l-129-67c-4-2-8-4-11-4c-4 0-7 2-9 5c-2 2-3 6-3 10c0 1 0 3 1 5l24 143l-104 101c-5 6-7 10-7 14c0 7 5 12 16 13l143 21l65 130c3 8 8 12 14 12z"/>
<glyph unicode="&#57380;" d="M475 342c0 15-2 29-6 41c-4 11-9 21-15 28c-7 7-15 12-24 17c-9 4-18 7-27 9c-8 1-18 2-28 2c-9 0-20-3-32-7c-11-5-22-11-31-19c-10-7-18-14-25-20c-7-7-12-13-17-18c-3-4-8-6-14-6c-6 0-11 2-14 6c-5 5-10 11-17 18c-7 6-15 13-25 20c-9 8-20 14-31 19c-12 4-23 7-32 7c-10 0-20-1-28-2c-9-2-18-5-27-9c-9-5-17-10-24-17c-6-7-11-17-15-28c-4-12-6-26-6-41c0-32 17-66 53-102l166-160l166 160c36 36 53 70 53 102z m37 0c0-42-22-85-65-129l-178-171c-4-4-8-5-13-5c-5 0-9 1-13 5l-178 172c-2 1-4 4-8 7c-3 4-8 10-16 19c-7 9-13 18-19 28c-6 9-11 21-15 34c-5 14-7 27-7 40c0 42 12 74 36 98c24 24 58 35 101 35c11 0 23-2 36-6c12-4 23-9 34-16c11-7 20-14 27-20c8-6 15-12 22-19c7 7 14 13 22 19c7 6 16 13 27 20c11 7 22 12 34 16c13 4 25 6 36 6c43 0 77-11 101-35c24-24 36-56 36-98z"/>
<glyph unicode="&#57381;" d="M201 101c0-1 0-3 0-6c1-3 1-6 1-8c-1-2-1-4-1-6c-1-3-2-5-3-6c-2-1-4-2-6-2l-91 0c-23 0-42 8-59 24c-16 16-24 36-24 58l0 202c0 22 8 42 24 58c17 16 36 24 59 24l91 0c2 0 5-1 6-3c2-2 3-4 3-6c0-1 0-3 0-6c1-3 1-6 1-8c-1-2-1-4-1-6c-1-3-2-5-3-6c-2-1-4-2-6-2l-91 0c-13 0-24-4-33-13c-9-9-13-20-13-32l0-202c0-12 4-23 13-32c9-9 20-13 33-13l89 0c0 0 1 0 3-1c2 0 3 0 3 0c0-1 1-1 3-2c1-1 2-2 2-3c-1-1 0-2 0-3z m265 155c0-5-2-9-5-13l-156-155c-3-4-7-6-12-6c-5 0-10 2-13 6c-4 3-6 8-6 13l0 82l-128 0c-5 0-9 2-13 5c-3 4-5 8-5 13l0 110c0 5 2 9 5 13c4 3 8 5 13 5l128 0l0 82c0 5 2 10 6 13c3 4 8 6 13 6c5 0 9-2 12-6l156-155c3-4 5-8 5-13z"/>
<glyph unicode="&#57382;" d="M104 108l66 0l0 198l-66 0z m71 259c-1 10-4 19-11 25c-6 6-15 10-26 10c-11 0-20-4-27-10c-7-6-11-15-11-25c0-9 4-17 10-24c7-7 16-10 27-10l0 0c11 0 20 3 27 10c7 7 11 15 11 24z m167-259l66 0l0 114c0 29-7 51-21 66c-14 15-32 23-55 23c-26 0-46-11-60-34l1 0l0 29l-66 0c0-12 0-78 0-198l66 0l0 111c0 7 0 12 2 16c2 7 7 12 12 17c6 5 13 7 22 7c22 0 33-15 33-45z m133 285l0-274c0-23-8-42-24-58c-16-16-35-24-58-24l-274 0c-23 0-42 8-58 24c-16 16-24 35-24 58l0 274c0 23 8 42 24 58c16 16 35 24 58 24l274 0c23 0 42-8 58-24c16-16 24-35 24-58z"/>
<glyph unicode="&#57383;" d="M229 265l0 128c0 3-1 5-3 7c-2 1-4 2-7 2c-2 0-4-1-6-2c-2-2-3-4-3-7l0-128c0-3 1-5 3-6c2-2 4-3 6-3c3 0 5 1 7 3c2 1 3 3 3 6z m192-100c0-5-2-10-6-13c-3-4-8-6-13-6l-122 0l-15-138c0-2-1-4-3-6c-1-1-3-2-6-2l0 0c-5 0-8 3-9 8l-22 138l-115 0c-5 0-10 2-13 6c-4 3-6 8-6 13c0 23 8 44 23 63c15 19 32 28 51 28l0 146c-10 0-19 4-26 11c-7 7-11 16-11 26c0 10 4 18 11 26c7 7 16 10 26 10l182 0c10 0 19-3 26-10c7-8 11-16 11-26c0-10-4-19-11-26c-7-7-16-11-26-11l0-146c19 0 36-9 51-28c15-19 23-40 23-63z"/>
<glyph unicode="&#57384;" d="M402 247l0-92c0-22-8-42-24-58c-16-16-35-24-58-24l-238 0c-22 0-42 8-58 24c-16 16-24 36-24 58l0 238c0 23 8 42 24 58c16 16 36 24 58 24l201 0c3 0 5 0 7-2c2-2 3-4 3-7l0-18c0-3-1-5-3-7c-2-1-4-2-7-2l-201 0c-12 0-23-5-32-14c-9-9-13-19-13-32l0-238c0-12 4-23 13-32c9-9 20-13 32-13l238 0c13 0 23 4 32 13c9 9 14 20 14 32l0 92c0 3 1 5 2 6c2 2 4 3 7 3l18 0c3 0 5-1 7-3c1-1 2-3 2-6z m110 247l0-147c0-5-2-9-5-12c-4-4-8-6-13-6c-5 0-10 2-13 6l-50 50l-187-186c-2-2-4-3-6-3c-3 0-5 1-7 3l-32 32c-2 2-3 4-3 7c0 2 1 4 3 6l186 187l-50 50c-4 3-6 8-6 13c0 5 2 9 6 13c3 3 7 5 12 5l147 0c5 0 9-2 13-5c3-4 5-8 5-13z"/>
<glyph unicode="&#57385;" d="M375 256c0-5-2-9-6-13l-155-155c-4-4-8-6-13-6c-5 0-9 2-13 6c-3 3-5 8-5 13l0 82l-128 0c-5 0-9 2-13 5c-4 4-5 8-5 13l0 110c0 5 1 9 5 13c4 3 8 5 13 5l128 0l0 82c0 5 2 10 5 13c4 4 8 6 13 6c5 0 9-2 13-6l155-155c4-4 6-8 6-13z m100 101l0-202c0-22-8-42-24-58c-16-16-35-24-58-24l-91 0c-3 0-5 1-7 3c-2 2-2 4-2 6c0 1-1 3-1 6c0 3 0 6 0 8c0 2 1 4 1 6c0 3 1 5 3 6c1 1 3 2 6 2l91 0c13 0 23 4 32 13c9 9 14 20 14 32l0 202c0 12-5 23-14 32c-9 9-19 13-32 13l-89 0c0 0-1 0-3 1c-2 0-4 0-4 0c0 1 0 1-2 2c-1 1-2 2-2 3c0 1 0 2 0 3c0 1-1 3-1 6c0 3 0 6 0 8c0 2 1 4 1 6c0 3 1 5 3 6c1 1 3 2 6 2l91 0c23 0 42-8 58-24c16-16 24-36 24-58z"/>
<glyph unicode="&#57386;" d="M149 260c-14 31-21 66-21 106l-73 0l0-28c0-15 9-30 27-46c18-16 40-27 67-32z m308 78l0 28l-73 0c0-40-7-75-21-106c27 5 49 16 67 32c18 16 27 31 27 46z m37 37l0-37c0-13-4-27-12-41c-8-13-19-26-32-37c-14-11-30-20-50-28c-19-7-40-11-61-12c-8-11-17-20-27-27c-8-7-13-14-15-21c-3-7-4-16-4-26c0-10 2-19 8-26c6-7 15-10 28-10c14 0 27-5 38-13c11-9 17-20 17-33l0-18c0-3-1-5-3-7c-1-2-3-2-6-2l-238 0c-3 0-5 0-6 2c-2 2-3 4-3 7l0 18c0 13 6 24 17 33c11 8 24 13 38 13c13 0 22 3 28 10c6 7 8 16 8 26c0 10-1 19-4 26c-2 7-7 14-15 21c-10 7-19 16-27 27c-21 1-42 5-61 12c-20 8-36 17-50 28c-13 11-24 24-32 37c-8 14-12 28-12 41l0 37c0 7 3 14 8 19c6 6 12 8 20 8l82 0l0 28c0 12 4 23 13 32c9 9 20 13 33 13l164 0c13 0 24-4 33-13c9-9 13-20 13-32l0-28l82 0c8 0 14-2 20-8c5-5 8-12 8-19z"/>
<glyph unicode="&#57387;" d="M149 126c-1-2-3-2-6 1c-2 2-2 3-1 5c2 2 4 1 6-1c2-2 3-4 1-5z m-12 17c2-2 2-4 0-5c-1-1-3-1-5 2c-1 2-1 4 0 5c2 1 4 1 5-2z m-17 17c-1-1-2-1-4 0c-2 1-3 2-2 3c1 1 2 1 4 1c2-1 2-2 2-4z m9-9c-2-2-3-1-5 0c-2 3-2 4-1 5c2 1 3 1 5-1c2-2 2-3 1-4z m36-32c0-3-2-3-5-2c-3 1-4 2-4 4c1 2 3 3 6 2c3-1 4-2 3-4z m18-2c0-2-1-3-4-3c-3 0-5 1-5 3c0 2 2 3 5 3c3 1 4 0 4-3z m17 3c0-2-1-3-4-4c-3-1-5 0-5 2c-1 3 1 4 4 5c3 0 5-1 5-3z m275 273l0-274c0-23-8-42-24-58c-16-16-35-24-58-24l-64 0c-3 0-5 0-7 0c-1 0-3 1-5 1c-3 1-4 2-5 4c-1 2-1 5-1 8l0 69c0 18-5 32-15 40c11 1 20 3 29 5c9 3 18 6 27 11c9 6 17 12 23 19c6 8 11 18 15 30c4 13 6 27 6 43c0 23-8 43-23 59c7 18 7 37-2 59c-5 1-13 0-23-4c-10-3-19-8-26-12l-11-7c-18 5-36 7-55 7c-19 0-37-2-55-7c-3 2-7 5-12 8c-5 3-13 6-24 11c-11 4-19 5-24 4c-9-22-9-41-2-59c-15-16-23-36-23-59c0-16 2-30 6-42c4-13 9-23 15-30c6-8 14-14 23-20c9-5 18-8 27-11c8-2 18-4 29-5c-8-7-12-17-14-29c-4-2-8-4-13-5c-4-1-10-1-16-1c-6 0-13 2-19 6c-6 4-11 10-16 18c-3 6-8 11-14 15c-5 4-10 6-14 7l-5 1c-4 0-7-1-9-2c-1-1-2-2-1-3c0-1 1-3 2-4c2-1 3-2 4-3l2-2c4-2 8-5 13-11c4-5 7-10 9-14l2-7c3-7 7-13 13-17c6-5 12-8 19-9c7-1 14-2 20-2c6 0 12 0 16 1l6 1c0-7 0-17 1-29c0-13 0-19 0-20c0-4-1-7-3-9c-3-2-5-4-7-4c-2 0-5 0-9 0l-64 0c-23 0-42 8-58 24c-16 16-24 35-24 58l0 274c0 23 8 42 24 58c16 16 35 24 58 24l274 0c23 0 42-8 58-24c16-16 24-35 24-58z"/>
<glyph unicode="&#57388;" d="M384 91c0 5-2 10-5 13c-4 4-8 6-13 6c-5 0-10-2-13-6c-4-3-6-8-6-13c0-5 2-9 6-12c3-4 8-6 13-6c5 0 9 2 13 6c3 3 5 7 5 12z m73 0c0 5-2 10-5 13c-4 4-8 6-13 6c-5 0-9-2-13-6c-4-3-5-8-5-13c0-5 1-9 5-12c4-4 8-6 13-6c5 0 9 2 13 6c3 3 5 7 5 12z m37 64l0-91c0-8-3-14-8-19c-6-6-12-8-20-8l-420 0c-8 0-14 2-20 8c-5 5-8 11-8 19l0 91c0 8 3 15 8 20c6 5 12 8 20 8l122 0c4-11 10-20 20-26c9-7 20-11 31-11l74 0c11 0 22 4 31 11c10 6 16 15 20 26l122 0c8 0 14-3 20-8c5-5 8-12 8-20z m-93 186c-3-8-9-12-17-12l-73 0l0-128c0-5-2-9-6-13c-3-3-7-5-12-5l-74 0c-5 0-9 2-12 5c-4 4-6 8-6 13l0 128l-73 0c-8 0-14 4-17 12c-3 7-2 14 4 19l128 128c4 4 8 6 13 6c5 0 9-2 13-6l128-128c6-5 7-12 4-19z"/>
<glyph unicode="&#57389;" d="M439 276c0 8-1 19-2 32c-2 14-3 23-6 28c-2 6-3 10-4 13c-1 2-2 6-3 10c-1 4-1 9-1 14c0 4 0 11 1 19c1 9 2 16 2 20c0 7-1 12-3 15c-1 1-2 1-4 1c-3 0-9-1-16-2c-8 0-13-1-17-1c-12 0-28 2-51 7c-22 5-38 7-50 7c-8 0-17-1-27-3c-9-3-17-5-24-7c-6-2-15-6-25-10c-27-10-46-20-58-29c-18-14-34-32-46-54c-12-23-20-45-25-68c-5-23-7-46-7-71c0-7 1-19 4-34c2-15 3-27 3-35c0-4-1-10-3-19c-2-8-3-14-3-18c0-5 1-8 3-11c3-3 6-4 10-4c5 0 12 1 21 3c9 2 16 3 21 3c11 0 27-1 48-4c22-3 38-5 49-5c34 0 61 4 81 11c24 8 47 23 67 43c20 21 36 44 48 70c11 27 17 53 17 79z m36 1c0-32-7-63-20-94c-13-31-32-58-56-82c-24-24-51-41-80-52c-24-8-55-12-93-12c-11 0-27 1-49 4c-21 2-37 4-48 4c-5 0-12-2-21-4c-9-3-16-4-21-4c-14 0-26 5-35 15c-10 11-15 23-15 37c0 5 1 11 4 20c2 8 3 14 3 19c0 7-1 19-4 34c-2 15-3 27-3 35c0 21 1 42 5 62c3 20 8 40 15 60c7 19 17 38 29 55c12 18 26 32 43 45c15 11 37 23 66 34c37 15 67 22 90 22c12 0 29-2 51-6c22-5 38-7 49-7c4 0 9 0 16 1c8 1 13 2 17 2c15 0 27-5 34-15c7-9 10-22 10-38c0-5 0-11-1-20c-1-8-2-15-2-19c0-2 1-4 1-5c0-2 0-4 1-5c0-2 0-3 1-4c0-1 1-3 2-5c0-2 1-3 1-5c3-7 6-18 8-33c1-15 2-28 2-39z"/>
<glyph unicode="&#57390;" d="M457 158c0-5-1-12-3-20c-2-9-4-15-6-20c-4-10-15-20-35-30c-17-10-35-15-53-15c-5 0-10 0-15 1c-5 1-10 2-16 4c-6 1-11 3-14 4c-3 1-8 3-16 6c-7 3-12 4-14 5c-18 7-35 14-50 24c-24 15-49 35-75 61c-26 26-47 51-62 76c-9 14-17 31-23 50c-1 1-3 6-6 14c-2 7-4 13-5 16c-1 3-3 7-5 13c-1 6-2 12-3 17c-1 4-1 9-1 15c0 17 5 35 14 53c11 19 21 31 31 35c4 2 11 4 19 6c9 1 15 2 20 2c3 0 5 0 6 0c4-2 9-9 16-22c2-4 5-9 8-16c4-6 7-12 10-18c3-5 6-10 9-15c1-1 2-3 5-7c3-4 5-8 6-10c1-3 2-6 2-8c0-4-3-9-8-15c-5-5-11-11-18-15c-6-5-12-10-17-16c-6-5-9-9-9-13c0-1 1-4 2-6c1-3 2-5 2-6c1-1 2-4 4-7c2-3 3-5 4-5c14-26 31-49 49-67c19-19 41-36 67-50c1 0 3-1 6-3c3-2 5-4 7-4c1-1 3-2 6-3c2-1 4-1 6-1c3 0 8 2 13 8c5 5 11 11 15 18c5 6 10 12 16 17c6 6 10 8 14 8c3 0 6 0 8-2c3-1 7-3 11-6c4-2 6-4 7-5c4-3 10-6 15-9c5-3 11-6 18-10c7-3 12-6 16-8c13-7 20-12 21-15c1-2 1-4 1-6z"/>
<glyph unicode="&#57391;" d="M375 439l-238 0c-12 0-23-5-32-14c-9-9-14-19-14-32l0-238c0-12 5-23 14-32c9-9 20-13 32-13l238 0c12 0 23 4 32 13c9 9 14 20 14 32l0 238c0 13-5 23-14 32c-9 9-20 14-32 14z m82-46l0-238c0-22-8-42-24-58c-16-16-35-24-58-24l-238 0c-23 0-42 8-58 24c-16 16-24 36-24 58l0 238c0 23 8 42 24 58c16 16 35 24 58 24l238 0c23 0 42-8 58-24c16-16 24-35 24-58z"/>
<glyph unicode="&#57392;" d="M402 439l-292 0l0-355l121 116l25 24l25-24l121-116z m4 36c4 0 8 0 12-2c7-3 12-7 15-12c4-5 6-11 6-18l0-368c0-6-2-12-6-18c-3-5-8-9-15-11c-3-2-8-3-12-3c-9 0-17 3-24 10l-126 121l-126-121c-7-7-15-10-24-10c-4 0-8 1-12 3c-7 2-12 6-15 11c-4 6-6 12-6 18l0 368c0 7 2 13 6 18c3 5 8 9 15 12c4 2 8 2 12 2z"/>
<glyph unicode="&#57393;" d="M402 171c0 2 0 4 0 5c-1 1-5 4-11 8c-7 4-15 9-26 14l-15 9c-1 0-2 1-5 3c-3 2-5 4-7 5c-2 1-4 1-6 1c-4 0-8-3-14-9c-5-6-11-13-16-19c-5-6-10-9-13-9c-1 0-2 0-4 1c-2 0-4 1-5 1c-1 1-2 2-5 3c-2 1-3 2-4 3c-18 10-35 22-48 36c-14 13-26 30-36 48c-1 1-2 2-3 4c-1 3-2 4-3 5c0 1-1 3-1 5c-1 2-1 3-1 4c0 3 2 6 5 10c4 4 9 8 13 11c5 3 9 7 13 11c4 4 6 8 6 11c0 2 0 4-1 6c-1 2-3 4-5 7c-2 3-3 4-3 5c-1 1-2 4-5 8c-2 5-4 9-7 13c-2 5-5 9-7 14c-3 5-5 9-8 12c-2 3-3 4-4 5c-1 0-3 0-5 0c-9 0-19-2-29-6c-8-4-16-13-23-27c-6-14-9-26-9-37c0-3 0-7 0-10c1-3 1-6 2-9c0-2 1-5 2-9c2-4 3-7 3-9c1-1 2-4 4-9c2-5 3-7 3-9c11-31 32-61 62-91c30-30 60-51 91-62c2 0 4-1 9-3c5-2 8-3 9-4c2 0 5-1 9-3c4-1 7-2 9-2c3-1 6-1 9-2c3 0 7 0 10 0c11 0 23 3 37 9c14 7 23 15 27 23c4 10 6 20 6 29z m73 222l0-274c0-23-8-42-24-58c-16-16-35-24-58-24l-274 0c-23 0-42 8-58 24c-16 16-24 35-24 58l0 274c0 23 8 42 24 58c16 16 35 24 58 24l274 0c23 0 42-8 58-24c16-16 24-35 24-58z"/>
<glyph unicode="&#57394;" d="M481 395c-13-18-28-34-46-47c0-3 0-7 0-12c0-25-3-50-11-74c-7-25-18-49-33-71c-14-23-32-43-52-61c-21-17-45-31-74-41c-29-11-60-16-92-16c-52 0-99 14-142 42c7-1 14-2 22-2c43 0 81 14 115 40c-20 0-38 6-54 18c-16 12-27 27-33 46c7-1 13-2 18-2c8 0 16 1 24 4c-21 4-39 15-53 31c-14 17-21 37-21 59l0 1c13-7 27-11 42-11c-13 8-23 19-30 32c-8 14-11 29-11 44c0 17 4 33 12 47c23-28 51-51 84-68c33-17 69-27 107-29c-2 8-3 15-3 22c0 25 9 47 27 65c18 18 40 27 66 27c26 0 49-10 67-29c21 4 40 11 59 22c-7-22-21-39-41-51c18 2 35 7 53 14z"/>
<glyph unicode="&#57395;" d="M292 353l74 0l-9-81l-65 0l0-235l-97 0l0 235l-49 0l0 81l49 0l0 49c0 35 8 61 24 79c17 18 44 26 81 26l65 0l0-81l-40 0c-8 0-14 0-18-2c-5-1-8-3-10-6c-2-4-3-7-4-10c0-3-1-8-1-14z"/>
<glyph unicode="&#57396;" d="M475 256c0-48-14-91-41-129c-28-38-64-65-109-79c-5-1-8-1-11 2c-2 2-3 5-3 8l0 61c0 18-5 32-15 40c11 1 20 3 29 5c9 3 18 6 27 11c9 6 17 12 23 19c6 8 11 18 15 30c4 13 6 27 6 43c0 23-8 43-23 59c7 18 7 37-2 59c-5 1-13 0-23-4c-10-3-19-8-26-12l-11-7c-18 5-36 7-55 7c-19 0-37-2-55-7c-3 2-7 5-12 8c-5 3-13 6-24 11c-11 4-19 5-24 4c-9-22-9-41-2-59c-15-16-23-36-23-59c0-16 2-30 6-42c4-13 9-23 15-30c6-8 14-14 23-20c9-5 18-8 27-11c8-2 18-4 29-5c-8-7-12-17-14-29c-4-2-8-4-13-5c-4-1-10-1-16-1c-6 0-13 2-19 6c-6 4-11 10-16 18c-3 6-8 11-14 15c-5 4-10 6-14 7l-5 1c-4 0-7-1-9-2c-1-1-2-2-1-3c0-1 1-3 2-4c2-1 3-2 4-3l2-2c4-2 8-5 13-11c4-5 7-10 9-14l2-7c3-7 7-13 13-17c6-5 12-8 19-9c7-1 14-2 20-2c6 0 12 0 16 1l6 1c0-7 0-16 1-25c0-10 0-15 0-16c0-3-2-6-4-8c-2-3-6-3-11-2c-45 14-81 41-109 79c-27 38-41 81-41 129c0 40 9 77 29 110c20 34 46 60 80 80c33 20 70 29 110 29c40 0 77-9 110-29c34-20 60-46 80-80c20-33 29-70 29-110z"/>
<glyph unicode="&#57397;" d="M494 347l0-73c0-5-2-9-6-13c-3-3-8-5-13-5l-18 0c-5 0-9 2-13 5c-3 4-5 8-5 13l0 73c0 21-7 38-22 52c-14 14-31 22-51 22c-20 0-38-8-52-22c-14-14-21-31-21-52l0-54l27 0c8 0 14-3 19-8c6-6 8-12 8-20l0-164c0-8-2-15-8-20c-5-5-11-8-19-8l-274 0c-8 0-14 3-20 8c-5 5-8 12-8 20l0 164c0 8 3 14 8 20c6 5 12 8 20 8l192 0l0 54c0 36 12 66 37 91c25 25 55 37 91 37c35 0 65-12 90-37c25-25 38-55 38-91z"/>
<glyph unicode="&#57398;" d="M469 461c12 0 22-4 30-13c9-8 13-18 13-30l0-324c0-12-4-22-13-30c-8-9-18-13-30-13l-426 0c-12 0-22 4-30 13c-9 8-13 18-13 30l0 324c0 12 4 22 13 30c8 9 18 13 30 13z m-426-34c-3 0-5-1-6-3c-2-2-3-4-3-6l0-60l444 0l0 60c0 2-1 4-3 6c-1 2-3 3-6 3z m426-342c3 0 5 1 6 3c2 2 3 4 3 6l0 162l-444 0l0-162c0-2 1-4 3-6c1-2 3-3 6-3z m-401 34l0 35l69 0l0-35z m103 0l0 35l102 0l0-35z"/>
<glyph unicode="&#57399;" d="M165 128c0-15-6-28-16-39c-11-11-24-16-39-16c-16 0-28 5-39 16c-11 11-16 24-16 39c0 15 5 28 16 39c11 11 23 16 39 16c15 0 28-5 39-16c10-11 16-24 16-39z m146-35c0-5-1-10-5-14c-3-4-8-6-13-6l-39 0c-5 0-9 2-12 5c-4 3-6 7-6 12c-4 43-22 81-53 112c-31 31-68 48-112 52c-4 1-8 3-11 6c-4 3-5 8-5 12l0 39c0 5 2 10 6 13c3 4 7 5 12 5l2 0c30-2 59-10 87-23c28-13 52-30 74-52c22-21 39-46 52-74c13-28 20-57 23-87z m146-1c1-5-1-9-5-13c-3-4-8-6-13-6l-41 0c-5 0-9 2-13 5c-3 3-5 8-5 12c-3 41-12 80-29 117c-17 37-39 69-66 96c-27 27-59 49-96 66c-37 17-76 27-117 29c-5 0-9 2-12 6c-3 3-5 8-5 12l0 41c0 5 2 10 6 13c3 4 7 5 12 5l1 0c50-2 98-13 143-34c46-20 86-48 122-84c35-35 63-76 84-121c20-46 32-94 34-144z"/>
<glyph unicode="&#57400;" d="M334 165c0-7-3-12-7-17c-4-4-10-6-16-6c-6 0-12 2-16 6c-5 5-7 10-7 17c0 6 2 11 7 16c4 4 10 6 16 6c6 0 12-2 16-6c4-5 7-10 7-16z m73 0c0-7-2-12-7-17c-4-4-10-6-16-6c-6 0-12 2-16 6c-5 5-7 10-7 17c0 6 2 11 7 16c4 4 10 6 16 6c6 0 12-2 16-6c5-5 7-10 7-16z m32-46l0 91c0 3-1 5-3 7c-2 2-4 2-6 2l-348 0c-2 0-4 0-6-2c-2-2-3-4-3-7l0-91c0-3 1-5 3-7c2-1 4-2 6-2l348 0c2 0 4 1 6 2c2 2 3 4 3 7z m-352 137l338 0l-45 138c-1 2-3 4-5 6c-2 1-5 2-7 2l-224 0c-2 0-5-1-7-2c-2-2-4-4-5-6z m388-46l0-91c0-13-4-23-13-32c-9-9-20-14-32-14l-348 0c-12 0-23 5-32 14c-9 9-13 19-13 32l0 91c0 5 1 12 4 22l56 173c4 10 10 18 18 24c9 7 19 10 29 10l224 0c10 0 20-3 29-10c8-6 14-14 18-24l56-173c3-10 4-17 4-22z"/>
<glyph unicode="&#57401;" d="M475 329c11 0 19-3 26-11c7-7 11-15 11-25c0-11-4-19-11-26c-7-7-15-11-26-11l0-110c0-10-3-18-10-25c-8-8-16-11-26-11c-80 66-157 102-232 108c-11-3-20-10-26-19c-6-9-9-18-9-28c0-10 4-19 11-27c-3-6-6-12-6-18c-1-7 0-12 2-17c1-5 4-10 9-16c5-5 9-10 14-14c4-4 10-9 17-14c-5-11-16-19-31-24c-16-5-32-6-49-3c-16 2-29 7-37 15c-2 5-4 13-9 25c-4 13-7 22-9 27c-2 6-4 15-6 26c-3 11-4 21-5 29c0 8 0 17 1 28c1 11 3 21 7 31l-35 0c-13 0-24 5-33 14c-9 9-13 20-13 32l0 55c0 13 4 23 13 32c9 9 20 14 33 14l137 0c83 0 168 36 256 109c10 0 18-3 26-10c7-8 10-16 10-26z m-36-172l0 272c-75-57-148-90-220-98l0-77c72-8 145-40 220-97z"/>
<glyph unicode="&#57402;" d="M261 27c0 3-2 5-5 5c-11 0-21 4-29 12c-8 8-12 18-12 29c0 3-2 5-5 5c-3 0-4-2-4-5c0-14 5-26 14-35c10-10 22-15 36-15c3 0 5 1 5 4z m-190 83l370 0c-31 34-54 73-70 117c-16 44-24 90-24 139c0 48-30 73-91 73c-61 0-91-25-91-73c0-49-8-95-24-139c-16-44-39-83-70-117z m423 0c0-10-4-19-11-26c-7-7-16-11-26-11l-128 0c0-20-7-37-21-52c-15-14-32-21-52-21c-20 0-37 7-52 21c-14 15-21 32-21 52l-128 0c-10 0-19 4-26 11c-7 7-11 16-11 26c36 30 64 68 82 113c19 45 28 93 28 143c0 31 9 56 27 75c19 18 44 29 76 33c-2 3-2 7-2 11c0 7 2 14 8 19c5 5 11 8 19 8c8 0 14-3 19-8c6-5 8-12 8-19c0-4 0-8-2-11c32-4 57-15 76-33c18-19 27-44 27-75c0-50 9-98 28-143c18-45 46-83 82-113z"/>
<glyph unicode="&#57403;" d="M430 256l39-39c6-5 8-12 6-20c-2-7-7-12-15-14l-54-14l15-53c3-8 1-14-5-20c-6-6-12-8-20-5l-53 15l-14-54c-2-8-7-13-14-15c-3 0-5 0-6 0c-6 0-11 2-14 6l-39 39l-39-39c-5-6-12-8-20-6c-7 2-12 7-14 15l-14 54l-53-15c-8-3-14-1-20 5c-6 6-8 12-5 20l15 53l-54 14c-8 2-13 7-15 14c-2 8 0 15 6 20l39 39l-39 39c-6 5-8 12-6 20c2 7 7 12 15 14l54 14l-15 53c-3 8-1 14 5 20c6 6 12 8 20 5l53-15l14 54c2 8 7 13 14 15c8 2 15 0 20-6l39-40l39 40c5 6 12 8 20 6c7-2 12-7 14-15l14-54l53 15c8 3 14 1 20-5c6-6 8-12 5-20l-15-53l54-14c8-2 13-7 15-14c2-8 0-15-6-20z"/>
<glyph unicode="&#57404;" d="M73 128c0 5-2 9-5 13c-4 3-8 5-13 5c-5 0-9-2-13-5c-4-4-5-8-5-13c0-5 1-9 5-13c4-3 8-5 13-5c5 0 9 2 13 5c3 4 5 8 5 13z m402 165c0 9-3 18-11 25c-7 7-16 11-25 11l-165 0c0 4 2 9 5 14c2 5 6 11 9 16c3 5 7 11 9 19c3 8 5 16 5 24c0 13-5 22-13 28c-8 6-19 9-33 9c-5 0-13-13-26-40c-4-8-8-14-10-18c-8-13-19-26-32-42c-14-15-23-25-29-30c-13-11-27-16-40-16l-9 0l0-183l9 0c14 0 29-3 48-9c18-7 36-13 55-19c19-6 36-9 51-9c36 0 54 16 54 48c0 5 0 10-1 16c5 3 10 8 13 15c4 7 5 14 5 21c0 7-1 13-5 20c10 9 15 20 15 34c0 4-1 10-3 15c-1 6-4 11-7 14l95 0c10 0 18 4 26 11c7 7 10 16 10 26z m37 0c0-20-7-37-22-52c-14-14-31-22-51-22l-48 0c-1-11-5-23-11-34c1-4 1-8 1-12c0-19-6-36-17-51c0-26-8-47-25-62c-16-16-38-23-64-23c-26 0-56 6-92 19c-32 12-53 17-64 17l-82 0c-11 0-19 4-26 11c-7 7-11 16-11 26l0 183c0 10 4 18 11 25c7 8 15 11 26 11l82 0c2 0 4 1 6 1c2 1 4 3 7 4c2 2 4 4 6 6c2 1 4 3 7 6c3 3 5 5 6 6c1 2 3 4 5 6c3 3 4 5 4 5c13 14 22 27 29 37c2 4 5 10 9 18c4 8 8 14 11 20c3 6 7 12 11 18c5 6 10 11 16 14c6 4 13 5 20 5c24 0 43-6 59-19c16-12 23-30 23-54c0-13-2-25-6-36l107 0c20 0 37-8 51-22c15-14 22-32 22-51z"/>
<glyph unicode="&#57405;" d="M393 110l9 0l0 183l-9 0c-7 0-13 1-19 3c-6 2-12 6-18 11c-6 4-10 9-14 13c-4 4-9 9-14 15c-1 1-1 1-1 1c-1 1-1 1-1 2c-1 0-1 1-2 1c-13 16-24 29-32 42c-2 4-6 10-11 19c0 1-1 3-3 6c-1 4-3 8-5 11c-2 3-3 6-6 10c-2 3-4 6-6 9c-2 2-3 3-5 3c-14 0-25-3-33-9c-8-6-13-15-13-28c0-8 2-16 5-24c2-8 6-14 9-19c3-5 7-11 9-16c3-5 5-10 5-14l-165 0c-9 0-18-4-25-11c-8-7-11-16-11-25c0-10 3-19 10-26c8-7 16-11 26-11l95 0c-3-3-6-8-7-14c-2-5-3-11-3-15c0-14 5-25 15-34c-4-7-5-13-5-20c0-7 1-14 5-21c3-7 8-12 13-15c0-5-1-10-1-16c0-16 5-28 14-36c9-8 22-12 39-12c16 0 33 3 52 9c19 6 37 12 55 19c19 6 34 9 48 9z m82 18c0 5-1 9-5 13c-4 3-8 5-13 5c-5 0-9-2-13-5c-3-4-5-8-5-13c0-5 2-9 5-13c4-3 8-5 13-5c5 0 9 2 13 5c4 4 5 8 5 13z m37 165l0-183c0-10-4-19-11-26c-7-7-15-11-26-11l-82 0c-11 0-32-5-64-17c-36-13-66-19-90-19c-27 0-49 7-66 22c-17 14-25 35-25 62l1 1c-12 15-18 32-18 51c0 4 0 8 1 12c-6 11-10 23-11 34l-48 0c-20 0-37 8-51 22c-15 15-22 32-22 52c0 19 7 37 22 51c14 14 31 22 51 22l107 0c-4 11-6 23-6 36c0 24 7 42 23 54c16 13 35 19 59 19c7 0 14-1 20-5c6-3 11-8 16-14c4-6 8-12 11-18c3-6 7-12 11-20c4-8 7-14 9-18c7-10 16-23 29-37c0 0 1-2 4-5c2-2 4-4 5-6c1-1 3-3 6-6c3-3 5-5 7-6c2-2 4-4 6-6c3-1 5-3 7-4c2 0 4-1 6-1l82 0c11 0 19-3 26-11c7-7 11-15 11-25z"/>
<glyph unicode="&#57406;" d="M402 55c0 5-2 9-5 13c-4 3-8 5-13 5c-5 0-9-2-13-5c-3-4-5-8-5-13c0-5 2-9 5-13c4-4 8-5 13-5c5 0 9 1 13 5c3 4 5 8 5 13z m37 218c0 36-16 54-48 54c-5 0-10 0-16-1c-3 5-8 10-15 13c-7 4-14 5-21 5c-7 0-13-1-20-5c-9 10-20 15-34 15c-4 0-10-1-15-3c-6-1-11-4-14-7l0 95c0 10-4 18-11 26c-7 7-16 10-26 10c-9 0-18-3-25-11c-7-7-11-16-11-25l0-165c-4 0-9 2-14 5c-5 2-11 6-16 9c-5 3-11 7-19 9c-8 3-16 5-24 5c-13 0-22-5-28-13c-6-8-9-19-9-33c0-5 13-13 40-26c8-4 14-8 18-10c13-8 26-19 42-32c15-14 25-23 30-29c11-13 16-27 16-40l0-9l183 0l0 9c0 14 3 29 9 48c7 18 13 36 19 55c6 19 9 36 9 51z m36 2c0-26-6-56-19-92c-12-32-17-53-17-64l0-82c0-11-4-19-11-26c-7-7-16-11-26-11l-183 0c-10 0-18 4-25 11c-8 7-11 15-11 26l0 82c0 2-1 4-1 6c-1 2-3 4-4 7c-2 2-4 4-6 6c-1 2-3 4-6 7c-3 3-5 5-6 6c-2 1-4 3-6 5c-3 3-5 4-5 4c-14 13-27 22-37 29c-4 2-10 5-18 9c-8 4-14 8-20 11c-6 3-12 7-18 11c-6 5-11 10-14 16c-4 6-5 13-5 20c0 24 6 43 19 59c12 16 30 23 54 23c13 0 25-2 36-6l0 107c0 20 8 37 22 51c14 15 32 22 51 22c20 0 37-7 52-22c14-14 22-31 22-51l0-48c11-1 23-5 34-11c4 1 8 1 12 1c19 0 36-6 51-17c26 0 47-8 62-25c16-16 23-38 23-64z"/>
<glyph unicode="&#57407;" d="M439 238c0 16-3 33-9 52c-6 19-12 37-19 55c-6 19-9 34-9 48l0 9l-183 0l0-9c0-7-1-13-3-19c-2-6-6-12-11-18c-4-6-9-10-13-14c-4-4-9-9-15-14c-2-2-3-3-4-4c-16-13-29-24-42-32c-4-2-10-6-19-11c-1 0-3-1-6-3c-4-1-8-3-11-5c-3-2-6-3-10-6c-3-2-6-4-9-6c-2-2-3-3-3-5c0-14 3-25 9-33c6-8 15-13 28-13c8 0 16 2 24 5c8 2 14 6 19 9c5 3 11 7 16 9c5 3 10 5 14 5l0-165c0-9 4-18 11-25c7-8 16-11 25-11c10 0 19 3 26 10c7 8 11 16 11 26l0 95c9-7 19-10 29-10c14 0 25 5 34 15c7-4 13-5 20-5c7 0 14 1 21 5c7 3 12 8 15 13c5 0 10-1 16-1c16 0 28 5 36 14c8 9 12 22 12 39z m-37 219c0 5-2 9-5 13c-4 4-8 5-13 5c-5 0-9-1-13-5c-3-4-5-8-5-13c0-5 2-9 5-13c4-3 8-5 13-5c5 0 9 2 13 5c3 4 5 8 5 13z m73-218c0-27-7-49-22-66c-14-17-35-25-62-25l-1 1c-15-12-32-18-51-18c-4 0-8 0-12 1c-11-6-22-9-34-11l0-48c0-20-8-37-22-51c-15-15-32-22-52-22c-19 0-37 7-51 22c-14 14-22 31-22 51l0 107c-10-4-22-6-36-6c-23 0-41 7-54 23c-13 16-19 35-19 59c0 7 1 14 5 20c3 6 8 11 14 16c6 4 12 8 18 11c6 3 12 7 20 11c8 4 14 7 18 9c10 7 23 16 37 29c0 0 2 1 5 4c2 2 4 4 6 5c1 1 3 3 6 6c3 3 5 5 6 7c2 2 4 4 6 6c1 3 3 5 4 7c0 2 1 4 1 6l0 82c0 11 3 19 11 26c7 7 15 11 25 11l183 0c10 0 19-4 26-11c7-7 11-15 11-26l0-82c0-11 5-32 17-64c13-36 19-66 19-90z"/>
<glyph unicode="&#57408;" d="M402 238l0 36c0 5-2 10-5 13c-4 4-8 6-13 6l-143 0l54 54c3 3 5 7 5 12c0 5-2 10-5 13l-26 26c-4 4-8 5-13 5c-5 0-10-1-13-5l-104-103l-26-26c-3-4-5-8-5-13c0-5 2-9 5-13l26-26l104-103c3-4 8-5 13-5c5 0 9 1 13 5l26 26c3 3 5 7 5 13c0 5-2 9-5 12l-54 54l143 0c5 0 9 2 13 6c3 3 5 8 5 13z m73 18c0-40-9-77-29-110c-20-34-46-60-80-80c-33-20-70-29-110-29c-40 0-77 9-110 29c-34 20-60 46-80 80c-20 33-29 70-29 110c0 40 9 77 29 110c20 34 46 60 80 80c33 20 70 29 110 29c40 0 77-9 110-29c34-20 60-46 80-80c20-33 29-70 29-110z"/>
<glyph unicode="&#57409;" d="M404 256c0 5-2 9-5 13l-26 26l-104 103c-3 4-8 5-13 5c-5 0-9-1-13-5l-26-26c-3-3-5-7-5-13c0-5 2-9 5-12l54-54l-143 0c-5 0-9-2-13-6c-3-3-5-8-5-13l0-36c0-5 2-10 5-13c4-4 8-6 13-6l143 0l-54-54c-3-3-5-7-5-12c0-5 2-10 5-13l26-26c4-4 8-5 13-5c5 0 10 1 13 5l104 103l26 26c3 4 5 8 5 13z m71 0c0-40-9-77-29-110c-20-34-46-60-80-80c-33-20-70-29-110-29c-40 0-77 9-110 29c-34 20-60 46-80 80c-20 33-29 70-29 110c0 40 9 77 29 110c20 34 46 60 80 80c33 20 70 29 110 29c40 0 77-9 110-29c34-20 60-46 80-80c20-33 29-70 29-110z"/>
<glyph unicode="&#57410;" d="M403 256c0 5-1 10-5 13l-103 104l-26 26c-4 3-8 5-13 5c-5 0-9-2-13-5l-26-26l-103-104c-4-3-5-8-5-13c0-5 1-9 5-13l26-26c3-3 7-5 13-5c5 0 9 2 12 5l54 54l0-143c0-5 2-9 6-13c3-3 8-5 13-5l36 0c5 0 10 2 13 5c4 4 6 8 6 13l0 143l54-54c3-3 7-5 12-5c5 0 10 2 13 5l26 26c4 4 5 8 5 13z m72 0c0-40-9-77-29-110c-20-34-46-60-80-80c-33-20-70-29-110-29c-40 0-77 9-110 29c-34 20-60 46-80 80c-20 33-29 70-29 110c0 40 9 77 29 110c20 34 46 60 80 80c33 20 70 29 110 29c40 0 77-9 110-29c34-20 60-46 80-80c20-33 29-70 29-110z"/>
</font>
</defs>
</svg>
